<?xml version="1.0" standalone="no"?>
<!DOCTYPE svg PUBLIC "-//W3C//DTD SVG 1.1//EN" "http://www.w3.org/Graphics/SVG/1.1/DTD/svg11.dtd" >
<svg xmlns="http://www.w3.org/2000/svg">
<metadata>Generated by IcoMoon</metadata>
<defs>
<font id="icomoon" horiz-adv-x="1024">
<font-face units-per-em="1024" ascent="896" descent="-128" />
<missing-glyph horiz-adv-x="1024" />
<glyph unicode="&#x20;" d="" />
<glyph unicode="&#xe600;" glyph-name="guanxitu" d="M824.889 213.333c-28.445 0-56.889-11.377-79.645-22.755l-45.51 45.51c22.755 34.134 39.822 73.956 39.822 119.468 0 62.577-28.445 119.466-73.956 153.6l22.756 45.51h22.755c79.645 0 142.222 62.578 142.222 142.223s-62.577 142.221-142.222 142.221-142.221-62.577-142.221-142.22c0-51.2 28.444-91.022 62.578-119.467l-17.068-39.823c-22.756 11.378-45.511 17.067-73.956 17.067-108.088 0-199.11-91.023-199.11-199.111 0-28.445 5.688-51.2 17.066-73.956l-39.822-17.067c-28.445 34.134-68.267 62.578-119.467 62.578-79.644 0-142.222-62.578-142.222-142.222s62.578-142.222 142.222-142.222 142.222 62.577 142.222 142.222v22.755l45.511 22.756c34.134-45.511 91.023-73.956 153.6-73.956 45.512 0 85.334 17.067 119.467 39.823l45.511-45.511c-11.378-22.756-22.755-51.2-22.755-79.645 0-79.644 62.577-142.222 142.222-142.222s142.221 62.578 142.221 142.221-62.577 142.223-142.22 142.223zM711.11 782.223c45.511 0 85.333-39.823 85.333-85.334s-39.822-85.333-85.333-85.333-85.333 39.822-85.333 85.333 39.822 85.333 85.333 85.333zM199.11 99.556c-45.511 0-85.333 39.822-85.333 85.333s39.822 85.333 85.333 85.333 85.333-39.822 85.333-85.333-39.822-85.333-85.333-85.333zM398.221 355.556c0 79.644 62.578 142.222 142.222 142.222s142.224-62.578 142.224-142.222-62.578-142.223-142.223-142.223-142.222 62.578-142.222 142.223zM824.89-14.222c-45.511 0-85.333 39.822-85.333 85.333s39.822 85.333 85.333 85.333 85.333-39.822 85.333-85.333-39.822-85.333-85.333-85.333z" />
<glyph unicode="&#xe601;" glyph-name="bushu" d="M732 551c-5 1.3-10-1.3-13.8-3.8l-60.3-60.2-43.9 44 60.3 60.3c3.8 3.8 5 8.8 3.8 13.8-1.3 5-3.8 8.8-8.8 11.3-59 28.9-130.6 16.3-177-30.1-35.1-35.1-51.5-84.1-43.9-133.1l-18.8-17.6c-6.3-6.3-6.3-16.3 0-22.6s16.3-6.3 22.6 0l23.8 23.8c3.8 3.8 5 8.8 3.8 13.8-8.8 41.4 5 84.1 33.9 113 31.4 31.4 77.8 43.9 121.8 32.6l-54-54c-6.3-6.3-6.3-16.3 0-22.6l66.5-66.5c6.3-6.3 16.3-6.3 22.6 0l54 54c11.3-42.7 0-89.1-32.6-121.8-30.1-30.1-71.6-42.7-113-33.9-5 1.3-10 0-13.8-3.8l-157.1-155.6c-23.9-23.8-64-23.8-89.1 0-25.1 23.9-23.8 64 0 89.1l67.8 66.5c6.3 6.3 6.3 16.3 0 22.6s-16.3 6.3-22.6 0l-66.5-66.5c-36.4-37.7-36.4-96.7 0-133.1 18.8-18.8 42.7-27.6 66.5-27.6s47.7 8.8 66.5 27.6l149.4 149.4c49-7.5 97.9 8.8 133.1 43.9 46.4 46.4 59 118 30.1 178.3-1.3 5.1-6.3 8.8-11.3 8.8zM351.2 271.6c-6.3-6.3-9.9-15.3-9.9-24.3s3.6-17.1 9.9-24.3c6.3-6.3 15.3-9.9 24.3-9.9s17.1 3.6 24.3 9.9c6.3 6.3 9.9 14.4 9.9 24.3s-3.6 17.1-9.9 24.3c-6.3 6.3-15.3 9.9-24.3 9.9s-18-3.6-24.3-9.9zM386.3 248.2c0-2.7-0.9-5.4-3.6-8.1-4.5-4.5-11.7-4.5-16.2 0-1.8 1.8-3.6 4.5-3.6 8.1s0.9 5.4 3.6 8.1c1.8 1.8 4.5 3.6 8.1 3.6s5.4-0.9 8.1-3.6c2.7-2.7 3.6-5.4 3.6-8.1zM747 341.4c-8.8 2.5-17.6-2.5-18.8-11.3-25.1-90.4-104.2-154.4-197.1-160.7-8.8 0-15.1-7.5-15.1-16.3s7.5-15.1 15.1-15.1h1.3c106.7 7.5 197.1 80.3 226 183.3 2.5 8.8-2.6 17.6-11.4 20.1zM296.4 389.1c0 99.2 66.5 185.8 161.9 212.1 8.8 2.5 13.8 11.3 11.3 18.8-2.5 8.8-11.3 13.8-18.8 11.3-109.2-30-185.8-129.2-185.8-242.2 0-8.8 7.5-16.3 16.3-16.3s15.1 7.5 15.1 16.3zM512-116c-275.7 0-500 224.3-500 500s224.3 500 500 500 500-224.3 500-500-224.3-500-500-500zM512 841.6c-252.3 0-457.6-205.3-457.6-457.6s205.3-457.6 457.6-457.6 457.6 205.3 457.6 457.6-205.3 457.6-457.6 457.6z" />
<glyph unicode="&#xe602;" glyph-name="alert-processing" d="M682.731 48.28c-71.176 0-138.092 27.716-188.419 78.043-50.329 50.327-78.046 117.241-78.046 188.417s27.717 138.090 78.045 188.418 117.244 78.045 188.42 78.045c71.174 0 138.088-27.717 188.416-78.045s78.045-117.244 78.045-188.418c0-71.176-27.717-138.090-78.045-188.417s-117.241-78.043-188.416-78.043zM682.731 535.249c-121.59 0-220.51-98.92-220.51-220.509 0-121.587 98.92-220.505 220.51-220.505 121.588 0 220.506 98.918 220.506 220.505 0 121.589-98.918 220.509-220.506 220.509zM732.51 397.318l22.524 22.526c7.503 10.003 22.516 10.003 32.536 0 10.017-7.512 10.017-22.526 0-32.531l-22.516-22.51c-7.507-10.031-22.514-10.031-32.545 0-9.993 7.503-9.993 22.514 0.001 32.515zM532.329 307.232v15.016c0 10.008 7.498 15.017 15.017 15.017h50.056c7.508 0 15.007-7.494 15.007-15.017v-15.016c0-10.007-7.499-15.024-17.521-15.024h-47.552c-7.509 0.008-15.007 7.521-15.007 15.024zM632.424 232.171l-22.524-22.529c-7.504-10.013-22.516-10.013-32.536 0-9.991 7.504-9.991 22.529 0 32.537l22.528 22.528c7.512 9.999 22.506 9.999 32.531 0 10.008-7.521 10.008-22.528 0.001-32.536zM632.424 364.803c-10.025-10.031-25.020-10.031-32.531 0l-22.528 22.51c-9.991 7.508-9.991 22.512 0 32.526 7.517 10.013 22.528 10.013 32.544 0l22.516-22.512c10.006-7.51 10.006-22.527-0.001-32.524zM704.99 179.619c0-7.518-7.521-15.013-15.023-15.013h-15.012c-7.508 0-15.021 7.495-15.021 15.013v47.544c0 7.512 7.513 15.024 15.021 15.024h15.012c10.016 0 15.023-5.008 15.023-15.024v-47.544zM704.99 402.331c0-7.495-7.521-15.014-15.023-15.014h-15.012c-7.508 0-15.021 7.511-15.021 15.014v47.545c0 7.508 4.998 15.016 15.021 15.016h15.012c10.016 0 15.023-7.503 15.023-15.016v-47.545zM787.57 209.642c-7.503-10.013-22.516-10.013-32.536 0l-22.524 22.529c-9.994 7.494-9.994 22.51 0 32.536 7.521 9.999 22.524 9.999 32.545 0l22.516-22.528c10.020-7.512 10.020-22.52-0.001-32.537zM832.617 307.232c0-7.504-7.512-15.024-15.015-15.024h-47.557c-7.503 0-15.017 7.521-15.017 15.024v15.016c0 7.504 7.503 15.017 15.017 15.017h47.561c7.505 0 15.025-5.009 15.025-15.017v-15.016h-0.014zM479.957-9.36c-25.19 0-46.099 16.666-53.826 39.335h-59.387c8.843-54.656 56.165-96.859 113.213-96.859 57.057 0 104.369 42.203 113.208 96.855h-59.374c-7.74-22.665-28.635-39.331-53.834-39.331zM308.915 553.176c-23.298-31.023-35.602-67.916-35.602-106.771v-161.8c0-8.931 7.23-16.178 16.188-16.178 8.951 0 16.173 7.247 16.173 16.178v161.795c0 31.803 10.075 61.985 29.104 87.339 5.401 7.183 3.954 17.3-3.171 22.649-7.201 5.377-17.321 3.89-22.692-3.212zM456.235 78.986c0 15.899-12.862 28.762-28.759 28.762h-255.010c22.643 31.351 45.955 75.397 49.437 126.971 3.095 45.395 2.473 119.613 2.024 173.826l-0.281 41.465c0 70.843 30.059 138.429 82.531 185.45 50.954 45.734 115.847 66.854 183.599 59.613 54.382-5.845 103.879-31.296 143.1-73.487 10.838-11.743 29.046-12.357 40.619-1.517 11.687 10.791 12.351 28.993 1.518 40.621-37.163 40.030-83.674 68.173-133.942 82.413v4.165c0 43.201-34.605 78.315-77.189 78.315-42.589 0-77.199-35.115-77.199-78.315v-3.954c-43.378-11.897-83.903-33.587-118.934-65.039-64.609-57.926-101.629-141.132-101.629-228.262l0.281-41.969c0.448-53.263 1.065-126.184-1.912-169.384-5.226-77.531-74.103-137.146-74.777-137.766-9.216-7.801-12.528-20.563-8.37-31.854 4.161-11.295 14.945-18.831 26.967-18.831h319.167c15.897 0.009 28.759 12.876 28.759 28.777zM463.881 768.052c8.76 0 16.084-6.502 18.543-15.036-12.48 0.776-24.835 0.799-37.069 0.041 2.46 8.51 9.78 14.995 18.526 14.995z" />
<glyph unicode="&#xe603;" glyph-name="yingyongguanli1" d="M409.6 281.6h-307.2c-42.496 0-76.8 34.304-76.8 76.8v460.8c0 42.496 34.304 76.8 76.8 76.8h307.2c42.496 0 76.8-34.304 76.8-76.8v-460.8c0-42.496-34.304-76.8-76.8-76.8zM102.4 844.8c-14.336 0-25.6-11.264-25.6-25.6v-460.8c0-14.336 11.264-25.6 25.6-25.6h307.2c14.336 0 25.6 11.264 25.6 25.6v460.8c0 14.336-11.264 25.6-25.6 25.6h-307.2zM921.6-128h-307.2c-42.496 0-76.8 34.304-76.8 76.8v460.8c0 42.496 34.304 76.8 76.8 76.8h307.2c42.496 0 76.8-34.304 76.8-76.8v-460.8c0-42.496-34.304-76.8-76.8-76.8zM614.4 435.2c-14.336 0-25.6-11.264-25.6-25.6v-460.8c0-14.336 11.264-25.6 25.6-25.6h307.2c14.336 0 25.6 11.264 25.6 25.6v460.8c0 14.336-11.264 25.6-25.6 25.6h-307.2zM395.264-128h-278.528c-24.576 0-37.888 2.56-51.712 9.728-12.8 6.656-23.040 16.896-29.696 29.696-7.168 14.336-9.728 27.136-9.728 51.712v176.128c0 24.576 2.56 37.888 9.728 51.712 6.656 12.8 16.896 23.040 29.696 29.696 14.336 7.168 27.136 9.728 51.712 9.728h278.528c24.576 0 37.888-2.56 51.712-9.728 12.8-6.656 23.040-16.896 29.696-29.696 7.168-13.824 9.728-26.624 9.728-51.712v-176.128c0-24.576-2.56-37.888-9.728-51.712-6.656-12.8-16.896-23.040-29.696-29.696-14.336-7.168-27.136-9.728-51.712-9.728zM116.736 179.2c-19.968 0-24.064-2.048-27.648-4.096-4.096-2.048-6.656-5.12-8.704-8.704s-4.096-7.168-4.096-27.648v-176.128c0-19.968 2.048-24.064 4.096-27.648 2.048-4.096 5.12-6.656 8.704-8.704 3.584-1.024 7.68-3.072 27.648-3.072h278.528c19.968 0 24.064 2.048 27.648 4.096 4.096 2.048 6.656 5.12 8.704 8.704s4.096 7.168 4.096 27.648v176.128c0 19.968-2.048 24.064-4.096 27.648-1.972 3.747-4.957 6.732-8.593 8.651l-0.111 0.053c-3.584 1.024-7.68 3.072-27.648 3.072h-278.528zM907.264 537.6h-278.528c-24.576 0-37.888 2.56-51.712 9.728-12.8 6.656-23.040 16.896-29.696 29.696-7.168 14.336-9.728 27.136-9.728 51.712v176.128c0 24.576 2.56 37.888 9.728 51.712 6.656 12.8 16.896 23.040 29.696 29.696 13.824 7.168 27.136 9.728 51.712 9.728h278.528c24.576 0 37.888-2.56 51.712-9.728 12.8-6.656 23.040-16.896 29.696-29.696 7.168-13.824 9.728-26.624 9.728-51.712v-176.128c0-24.576-2.56-37.888-9.728-51.712-6.656-12.8-16.896-23.040-29.696-29.696-13.824-7.168-27.136-9.728-51.712-9.728zM628.736 844.8c-20.48 0-24.064-2.048-27.136-3.584-4.096-2.048-6.656-5.12-8.704-8.704s-4.096-7.168-4.096-27.136v-176.128c0-19.968 2.048-24.064 4.096-27.136 2.048-4.096 5.12-6.656 8.704-8.704 3.072-2.56 7.168-4.608 27.136-4.608h278.528c20.48 0 24.064 2.048 27.136 3.584 4.096 2.048 6.656 5.12 8.704 8.704s4.096 7.168 4.096 27.136v176.64c0 19.968-2.048 24.064-4.096 27.136-1.972 3.747-4.957 6.732-8.593 8.651l-0.111 0.053c-3.072 2.048-7.168 4.096-27.136 4.096h-278.528z" />
<glyph unicode="&#xe604;" glyph-name="list" d="M119.006 53.459v130.872h785.231v-130.872h-785.231zM119.006 446.079h785.231v-130.877h-785.231v130.877zM119.006 707.823h785.231v-130.872h-785.231v130.872z" />
<glyph unicode="&#xe605;" glyph-name="regions" d="M515.6 816c-241.2 0-437.4-196.2-437.4-437.4s196.2-437.4 437.4-437.4c241.2-0.9 437.4 195.3 437.4 437.4s-196.2 437.4-437.4 437.4zM515.6-1.2c-62.1 0-120.6 15.3-171.9 41.4 0 0-0.9 0.9-3.6 2.7-34.2 16.2-72.9 69.3-74.7 85.5s-1.8 44.1 10.8 54.9c12.6 10.8 32.4 38.7 58.5 81.9 25.2 44.1-42.3 53.1-60.3 60.3s-47.7 49.5-81.9 52.2c-34.2 3.6-21.6-25.2-32.4-34.2-9.9-8.1-14.4-7.2-21.6 2.7-0.9 10.8-1.8 20.7-1.8 31.5 0 63 15.3 123.3 43.2 175.5 9.9 6.3 18.9 14.4 18.9 14.4h14.4c1.8 0 10.8-10.8 0-19.8s-19.8-40.5 5.4-38.7c26.1 1.8 59.4 6.3 63 32.4s-1.8 31.5 11.7 36.9c12.6 5.4 23.4-1.8 19.8-18s0-38.7 16.2-42.3c16.2-3.6 10.8-21.6 27-16.2s7.2 34.2 19.8 49.5c12.6 14.4 18 21.6 18 40.5 0 18 9.9 36 29.7 45s57.6 2.7 66.6-19.8c9-21.6 33.3-40.5 24.3-47.7s-29.7-16.2-35.1-23.4c-5.4-7.2-14.4-12.6-30.6-27s-34.2-42.3-9-62.1 40.5-30.6 67.5-30.6 51.3-21.6 67.5-32.4c16.2-10.8 21.6-19.8 27-28.8s1.8-32.4 10.8-49.5c9-16.2 9-51.3 9-69.3s7.2-44.1 10.8-60.3c3.6-16.2-7.2-53.1 12.6-54.9s28.8 11.7 48.6 49.5 28.8 36 42.3 53.1c12.6 16.2 16.2 30.6 18 47.7 1.8 16.2 21.6 18 21.6 49.5 0 30.6 0 32.4-7.2 48.6-7.2 17.1-18 18.9-14.4 35.1s-3.6 16.2 21.6 28.8c25.2 12.6 44.1 14.4 51.3 32.4s5.4 42.3 9 53.1c3.6 10.8 3.6 16.2 20.7 10.8 22.5-48.6 36-103.5 36-160.2 1.8-210.6-168.3-380.7-377.1-380.7zM515.6-1.2" />
<glyph unicode="&#xe606;" glyph-name="jiqun" d="M0 281.6v-273.067l236.203-136.533 236.203 136.533v273.067l-236.203 136.533zM404.821 48.128l-168.619-97.621-167.936 97.621v193.877l167.936 97.621 168.619-97.621zM750.933 759.467l-238.933 136.533-238.933-136.533v-273.067l238.933-136.533 238.933 136.533zM682.667 525.995l-170.667-97.621-170.667 97.621v193.877l170.667 97.621 170.667-97.621zM409.6 682.325v-118.784l102.4-58.709 102.4 58.709v118.784l-102.4 58.709-102.4-58.709zM136.533 85.675l102.4-58.709 102.4 58.709v118.784l-102.4 58.709-102.4-58.709v-118.784zM682.667 204.459v-118.784l102.4-58.709 102.4 58.709v118.784l-102.4 58.709-102.4-58.709zM787.797 418.133l-236.885-136.533v-273.067l236.203-136.533 236.885 136.533v273.067zM955.733 48.128l-167.936-96.939-168.619 96.939v193.877l167.936 96.939 168.619-96.939z" />
<glyph unicode="&#xe607;" glyph-name="gongzuotai" d="M60.090 553.1l-0.046-0.093 137.216-65.024-0.093-0.094 70.795-32.86-0.233-0.466 235.52-111.383c2.793-1.35 5.772-2.188 9.030-2.188s6.237 0.838 8.984 2.188l0.093-0.14 256.837 121.67 1.304-0.605 48.454 23.505-0.699 0.373 137.31 65.024-0.094 0.093c7.181 3.377 12.070 10.539 12.102 18.846v0.004c-0.074 8.286-4.949 15.416-11.975 18.751l-0.127 0.054 0.047 0.14-443.252 209.826c-2.618 1.331-5.701 2.133-8.966 2.188h-0.018c-3.258 0-6.237-0.93-9.030-2.188l-0.046 0.14-443.113-210.106c-7.16-3.38-12.039-10.515-12.102-18.796v-0.008c0-8.379 4.98-15.454 12.102-18.851zM827.252 294.54l137.31 65.024-0.094 0.14c7.167 3.371 12.051 10.511 12.102 18.797v0.007c-0.056 8.304-4.936 15.455-11.975 18.796l-0.127 0.054 0.047 0.14-104.541 49.525-48.547-23.552 94.953-44.963-394.1-186.694-394.101 186.694 96.163 45.568-49.618 22.993-104.727-49.569 0.093-0.14c-7.174-3.386-12.058-10.543-12.102-18.845v-0.006c0-8.379 4.98-15.407 12.102-18.805l-0.046-0.14 137.216-65.024-0.326-0.187 72.657-33.698-0.14-0.28 233.798-110.638c2.793-1.304 5.772-2.188 9.030-2.188 3.283 0.055 6.366 0.857 9.104 2.243l-0.12-0.055 0.093-0.14 305.897 144.989zM857.553 254.045l105.519-50.129c7.147-3.408 12.008-10.556 12.055-18.845v-0.006c-0.074-8.286-4.949-15.416-11.975-18.751l-0.127-0.054 0.047-0.14-443.253-209.826c-2.622-1.309-5.705-2.095-8.968-2.141h-0.015c-3.277 0.034-6.363 0.821-9.103 2.194l0.12-0.054-0.093-0.092-443.113 210.059c-7.16 3.38-12.039 10.515-12.102 18.796v0.008c0 8.378 4.98 15.453 12.102 18.85l-0.046 0.094 104.448 49.524 49.57-22.993-95.883-45.475 394.1-186.648 394.1 186.648-95.883 45.428 48.5 23.506z" />
<glyph unicode="&#xe608;" glyph-name="encryption" d="M951.65 356.733l-112.5 346.050c-6.3 20.25-18.45 36.45-36 49.050s-36.45 18.9-57.6 18.9h-446.85c-20.7 0-40.050-6.3-57.6-18.9s-29.7-28.8-36-49.050l-59.85-182.25c10.35 9 21.6 17.1 52.2 30.15 16.65 7.2 36 9 40.050 8.1l38.7 121.95c1.35 4.95 4.5 9 9 12.15s9.45 4.95 14.85 4.95h446.85c5.4 0 10.35-1.8 14.85-4.95s7.65-7.2 9-12.15l89.55-275.4h-422.1v-73.35h432.45c4.95 0 9.45-1.8 13.050-5.4s5.4-8.1 5.4-13.050v-182.7c0-4.95-1.8-9-5.4-13.050-3.6-3.6-8.1-5.4-13.050-5.4h-369v-72.9h368.55c25.2 0 46.8 9 64.8 27s27 39.6 27 64.8v183.15c0 9.45-3.15 23.85-10.35 42.3zM420.65 298.683h-36v83.7c0 70.2-57.15 127.35-127.35 127.35s-127.35-57.15-127.35-127.35v-83.7h-36c-17.1 0-31.5-14.4-31.5-31.5v-229.95c0-17.1 14.4-31.5 31.5-31.5h327.6c17.1 0 31.5 14.4 31.5 31.5v229.95c-1.35 17.1-14.4 31.5-32.4 31.5zM179.45 380.133c0 43.65 35.1 78.75 78.75 78.75s78.75-35.1 78.75-78.75l-0.9-81.45h-156.6v81.45zM393.65 57.033h-272.25v193.050h272.25v-193.050zM699.2 221.733c0-12.6-4.5-23.4-13.5-32.4s-19.8-13.5-32.4-13.5-23.4 4.5-32.4 13.5-13.5 19.8-13.5 32.4 4.5 23.4 13.5 32.4 19.8 13.5 32.4 13.5 23.4-4.5 32.4-13.5 13.5-19.35 13.5-32.4zM845.45 221.733c0-12.6-4.5-23.4-13.5-32.4s-19.8-13.5-32.4-13.5-23.4 4.5-32.4 13.5-13.5 19.8-13.5 32.4 4.5 23.4 13.5 32.4 19.8 13.5 32.4 13.5 23.4-4.5 32.4-13.5c9.45-8.55 13.5-19.35 13.5-32.4z" />
<glyph unicode="&#xe609;" glyph-name="ico-41" d="M515.2 160h-89.6c-19.2 0-35.2 16-35.2 35.2v89.6c0 19.2 16 35.2 35.2 35.2h89.6c19.2 0 35.2-16 35.2-35.2v-89.6c0-19.2-16-35.2-35.2-35.2zM425.6 284.8v-89.6h89.6v89.6h-89.6zM704 160h-89.6c-19.2 0-35.2 16-35.2 35.2v89.6c0 19.2 16 35.2 35.2 35.2h89.6c19.2 0 35.2-16 35.2-35.2v-89.6c0-19.2-16-35.2-35.2-35.2zM614.4 284.8v-89.6h89.6v89.6h-89.6zM515.2-28.8h-89.6c-19.2 0-35.2 16-35.2 35.2v89.6c0 19.2 16 35.2 35.2 35.2h89.6c19.2 0 35.2-16 35.2-35.2v-89.6c0-19.2-16-35.2-35.2-35.2zM425.6 96v-89.6h89.6v89.6h-89.6zM704-28.8h-89.6c-19.2 0-35.2 16-35.2 35.2v89.6c0 19.2 16 35.2 35.2 35.2h89.6c19.2 0 35.2-16 35.2-35.2v-89.6c0-19.2-16-35.2-35.2-35.2zM614.4 96v-89.6h89.6v89.6h-89.6zM323.2-25.6h-57.6c-140.8 0-256 115.2-256 256s115.2 256 256 256c44.8 0 86.4-12.8 124.8-32 16-9.6 22.4-32 12.8-48s-32-22.4-48-12.8c-28.8 16-60.8 25.6-92.8 25.6-102.4 0-188.8-83.2-188.8-188.8s83.2-188.8 188.8-188.8h60.8c19.2 0 35.2-16 35.2-35.2 0-16-16-32-35.2-32zM796.8-25.6c-16 0-28.8 9.6-35.2 25.6-3.2 19.2 6.4 38.4 25.6 41.6 92.8 22.4 156.8 96 156.8 185.6 0 92.8-76.8 176-176 188.8-19.2 3.2-32 19.2-28.8 38.4s19.2 32 38.4 28.8c134.4-19.2 236.8-128 236.8-256 0-121.6-86.4-224-211.2-252.8h-6.4zM774.4 419.2c-19.2 0-35.2 16-35.2 35.2 0 131.2-105.6 236.8-236.8 236.8s-236.8-105.6-236.8-236.8c0-19.2-16-35.2-35.2-35.2s-35.2 16-35.2 35.2c0 169.6 137.6 307.2 307.2 307.2s307.2-137.6 307.2-307.2c0-22.4-16-35.2-35.2-35.2z" />
<glyph unicode="&#xe60a;" glyph-name="about-system" d="M512 834c-247.5 0-450-202.5-450-450s202.5-450 450-450 450 202.5 450 450-202.5 450-450 450zM512 1.5c-210 0-382.5 172.5-382.5 382.5s172.5 382.5 382.5 382.5 382.5-172.5 382.5-382.5-172.5-382.5-382.5-382.5zM598.25 264c-11.25 0-52.5-63.75-78.75-63.75-7.5 0-7.5 3.75-7.5 11.25 0 11.25 7.5 30 15 41.25l56.25 146.25c26.25 71.25-7.5 90-41.25 90-45 0-86.25-22.5-116.25-48.75-11.25-11.25-33.75-48.75-33.75-60 0-3.75 3.75-11.25 11.25-11.25 15 0 41.25 71.25 71.25 71.25 7.5 0 15-7.5 7.5-18.75l-56.25-131.25c-3.75-11.25-33.75-56.25-33.75-90 0-30 18.75-60 48.75-60 78.75 0 168.75 93.75 168.75 112.5-3.75 7.5-7.5 11.25-11.25 11.25zM583.25 627.75c-33.75 0-63.75-26.25-63.75-60 0-30 22.5-52.5 52.5-52.5 33.75 0 63.75 26.25 63.75 60s-22.5 52.5-52.5 52.5z" />
<glyph unicode="&#xe60b;" glyph-name="xiangmuguanli" d="M864 704h-384c0 70.692-57.308 128-128 128v0h-192c-70.692 0-128-57.308-128-128v0-640c0-70.692 57.308-128 128-128v0h704c70.692 0 128 57.308 128 128v0 512c0 70.692-57.308 128-128 128v0zM160 768h192c35.346 0 64-28.654 64-64v0h-320c0 35.346 28.654 64 64 64v0zM928 64c0-35.346-28.654-64-64-64v0h-704c-35.346 0-64 28.654-64 64v0 576h768c35.346 0 64-28.654 64-64v0-512zM711.872 388.352h-1.92c-32.128 0-58.24 27.648-58.24 61.696 0 11.2 5.056 23.488 5.056 23.552 1.386 3.256 2.191 7.043 2.191 11.019 0 9.198-4.312 17.389-11.025 22.662l-0.062 0.047-0.576 0.384-56 33.024-0.576 0.256c-3.255 1.404-7.044 2.22-11.024 2.22-8.158 0-15.515-3.43-20.707-8.927l-0.013-0.014c-6.848-7.488-28.416-26.88-45.888-26.88s-39.232 19.776-46.080 27.392c-5.212 5.673-12.667 9.216-20.948 9.216-0.015 0-0.031 0-0.046 0h0.002c-0.053 0-0.115 0.001-0.178 0.001-3.785 0-7.376-0.825-10.605-2.306l0.159 0.065-0.64-0.256-58.56-34.112c-6.8-5.344-11.128-13.568-11.128-22.803 0-3.963 0.797-7.74 2.239-11.179l-0.071 0.191c0-0.128 5.056-12.352 5.056-23.552 0-34.048-26.112-61.696-58.24-61.696h-1.92c-9.408 0.192-17.024-8.448-19.456-22.016-0.192-1.088-4.672-26.496-4.672-46.528s4.48-45.44 4.672-46.528c2.432-13.376 9.856-22.080 19.072-22.080h2.24c32.128 0 58.24-27.648 58.24-61.696 0-11.2-5.056-23.488-5.056-23.552-1.369-3.246-2.164-7.019-2.164-10.978 0-9.205 4.299-17.406 10.999-22.704l0.061-0.046 0.512-0.384 54.976-32.576 0.576-0.256c3.104-1.456 6.74-2.305 10.575-2.305 0.085 0 0.17 0 0.254 0.001h-0.013c8.317 0.013 15.793 3.606 20.971 9.32l0.021 0.024c6.464 7.36 28.864 28.544 46.848 28.544s40.128-21.056 47.104-29.12c5.139-5.819 12.617-9.469 20.947-9.469 3.898 0 7.609 0.799 10.978 2.243l-0.182-0.069 0.64 0.256 57.536 33.728c6.746 5.369 11.033 13.579 11.033 22.791 0 3.943-0.785 7.702-2.208 11.13l0.071-0.193c0 0.064-5.056 12.352-5.056 23.552 0 34.048 26.112 61.696 58.24 61.696h1.92c9.344-0.192 17.024 8.512 19.456 22.080 0.256 1.152 4.736 26.624 4.736 46.592s-4.48 45.44-4.672 46.528c-2.432 13.568-10.048 22.208-19.456 22.016zM669.056 286.656c-36.16-1.92-65.088-33.92-65.088-72.96 0-12.992 4.736-25.472 5.76-28.032l-43.264-25.408c-0.64 0-1.216 0.256-1.344 0.448-4.889 5.502-10.144 10.452-15.805 14.907l-0.259 0.197c-13.44 10.624-26.176 16-38.016 16-11.712 0-24.384-5.248-37.76-15.68-8.96-6.976-15.168-14.016-15.936-14.848-0.389-0.21-0.847-0.348-1.333-0.383l-0.011-0.001h-0.128l-41.664 24.768c3.441 8.294 5.556 17.911 5.822 27.99l0.002 0.106c0 38.976-28.864 70.976-65.088 72.96-1.836 9.746-3.056 21.149-3.385 32.774l-0.007 0.314c0 12.928 2.816 30.208 3.328 33.216 36.224 1.984 65.152 33.984 65.152 73.024 0 12.992-4.736 25.408-5.76 28.032l43.968 25.664h0.128c0.768 0 1.408-0.256 1.6-0.448 0.768-0.768 6.912-7.552 15.872-14.336 13.12-9.984 25.6-15.040 37.056-15.040 11.328 0 23.68 4.992 36.8 14.784 8.96 6.656 15.040 13.312 15.808 14.016 0.449 0.281 0.995 0.448 1.58 0.448 0.007 0 0.014 0 0.022 0h0.127l42.496-25.088c-1.024-2.56-5.76-15.104-5.76-28.096 0-38.976 28.864-70.976 65.088-73.024 0.576-3.072 3.392-20.224 3.392-33.152 0-12.864-2.816-30.144-3.392-33.152zM448.768 320c0-35.558 28.31-64.384 63.232-64.384s63.232 28.826 63.232 64.384v0c0 35.558-28.31 64.384-63.232 64.384s-63.232-28.826-63.232-64.384v0z" />
<glyph unicode="&#xe60c;" glyph-name="ico-42" d="M518.4-92.8c-9.6 0-22.4 3.2-28.8 6.4l-364.8 211.2c-16 9.6-28.8 32-28.8 51.2v422.4c0 19.2 12.8 41.6 28.8 51.2l364.8 211.2c16 9.6 41.6 9.6 60.8 0l364.8-211.2c16-9.6 28.8-32 28.8-51.2v-102.4c0-19.2-12.8-32-32-32s-32 12.8-32 32v99.2l-361.6 208-361.6-208v-416l361.6-208 361.6 208v147.2c0 19.2 12.8 32 32 32s32-12.8 32-32v-150.4c0-19.2-12.8-41.6-28.8-51.2l-364.8-211.2c-9.6-3.2-22.4-6.4-32-6.4zM377.6 390.4c-44.8 0-80 35.2-80 80s35.2 80 80 80 80-35.2 80-80-35.2-80-80-80zM377.6 518.4c-25.6 0-48-22.4-48-48s22.4-48 48-48 48 22.4 48 48-22.4 48-48 48zM377.6 153.6c-35.2 0-60.8 28.8-60.8 60.8s28.8 60.8 60.8 60.8 60.8-28.8 60.8-60.8-28.8-60.8-60.8-60.8zM377.6 243.2c-16 0-28.8-12.8-28.8-28.8s12.8-28.8 28.8-28.8 28.8 12.8 28.8 28.8-12.8 28.8-28.8 28.8zM361.6 396.8h32v-128h-32zM665.6 227.2c-44.8 0-80 35.2-80 80s35.2 80 80 80 80-35.2 80-80-35.2-80-80-80zM665.6 355.2c-25.6 0-48-22.4-48-48s22.4-48 48-48 48 22.4 48 48-22.4 48-48 48zM665.6 502.4c-35.2 0-60.8 28.8-60.8 60.8s28.8 60.8 60.8 60.8 60.8-28.8 60.8-60.8-28.8-60.8-60.8-60.8zM665.6 592c-16 0-28.8-12.8-28.8-28.8s12.8-28.8 28.8-28.8 28.8 12.8 28.8 28.8-12.8 28.8-28.8 28.8zM649.6 508.8h32v-128h-32zM433.024 417.76l15.968 27.744 166.4-95.744-15.936-27.712z" />
<glyph unicode="&#xe60d;" glyph-name="ico-43" d="M512 54.4c-124.8 0-275.2 144-275.2 323.2s121.6 323.2 275.2 323.2 275.2-144 275.2-323.2-150.4-323.2-275.2-323.2zM512 636.8c-115.2 0-211.2-115.2-211.2-259.2 0-147.2 128-259.2 211.2-259.2s211.2 112 211.2 259.2c0 140.8-96 259.2-211.2 259.2zM512 291.2c-44.8 0-275.2 3.2-275.2 92.8 0 86.4 227.2 92.8 275.2 92.8 44.8 0 275.2-3.2 275.2-92.8s-230.4-92.8-275.2-92.8zM313.6 384c28.8-12.8 96-28.8 198.4-28.8 99.2 0 169.6 16 198.4 28.8-28.8 12.8-96 28.8-198.4 28.8s-169.6-19.2-198.4-28.8zM480 668.8h64v-582.4h-64zM41.6 659.2c-9.6 0-16 6.4-16 16v169.6c0 9.6 6.4 16 16 16h169.6c9.6 0 16-6.4 16-16s-6.4-16-16-16h-153.6v-153.6c0-9.6-6.4-16-16-16zM982.4 659.2c-9.6 0-16 6.4-16 16v153.6h-153.6c-9.6 0-16 6.4-16 16s6.4 16 16 16h169.6c9.6 0 16-6.4 16-16v-169.6c0-9.6-6.4-16-16-16zM211.2-105.6h-169.6c-9.6 0-16 6.4-16 16v169.6c0 9.6 6.4 16 16 16s16-6.4 16-16v-153.6h153.6c9.6 0 16-6.4 16-16s-6.4-16-16-16zM982.4-105.6h-169.6c-9.6 0-16 6.4-16 16s6.4 16 16 16h153.6v153.6c0 9.6 6.4 16 16 16s16-6.4 16-16v-169.6c0-9.6-6.4-16-16-16zM713.6 828.8h-403.2c-9.6 0-16 6.4-16 16s6.4 16 16 16h403.2c9.6 0 16-6.4 16-16s-9.6-16-16-16zM713.6-105.6h-403.2c-9.6 0-16 6.4-16 16s6.4 16 16 16h403.2c9.6 0 16-6.4 16-16s-9.6-16-16-16zM41.6 163.2c-9.6 0-16 6.4-16 16v403.2c0 9.6 6.4 16 16 16s16-6.4 16-16v-403.2c0-9.6-6.4-16-16-16zM982.4 163.2c-9.6 0-16 6.4-16 16v403.2c0 9.6 6.4 16 16 16s16-6.4 16-16v-403.2c0-9.6-6.4-16-16-16z" />
<glyph unicode="&#xe60e;" glyph-name="ico-44" d="M950.4-118.4h-876.8c-19.2 0-32 12.8-32 32v220.8c0 6.4 3.2 12.8 6.4 19.2 0 6.4 0 12.8 3.2 19.2l76.8 160c3.2 6.4 12.8 12.8 22.4 6.4 6.4-3.2 12.8-12.8 6.4-22.4l-73.6-150.4 502.4-3.2c9.6 0 16-6.4 16-16s-6.4-16-16-16l-512 3.2v-220.8h880v230.4l-153.6 326.4c0 3.2-6.4 6.4-9.6 6.4h-112c-9.6 0-16 6.4-16 16s6.4 16 16 16h112c16 0 32-9.6 38.4-22.4l153.6-329.6v-240c0-22.4-12.8-35.2-32-35.2zM499.2 476.8h-124.8c-9.6 0-16 6.4-16 16s6.4 16 16 16h124.8c9.6 0 16-6.4 16-16s-6.4-16-16-16zM259.2 688c0-14.138 11.462-25.6 25.6-25.6s25.6 11.462 25.6 25.6v0c0 14.138-11.462 25.6-25.6 25.6s-25.6-11.462-25.6-25.6v0zM790.4 102.4c-12.8 0-22.4 6.4-28.8 16-12.8 25.6-83.2 60.8-128 80-19.2 9.6-25.6 25.6-25.6 38.4s9.6 28.8 32 32l73.6 16c-25.6 22.4-70.4 51.2-115.2 76.8-6.4 3.2-12.8 9.6-16 16-131.2 352-304 384-352 387.2-19.2 0-38.4 9.6-51.2 22.4-19.2 22.4-38.4 28.8-51.2 32 3.2-12.8 12.8-35.2 35.2-67.2l3.2-3.2c3.2-6.4 9.6-12.8 12.8-25.6 16-64 41.6-115.2 60.8-128 9.6-6.4 16-19.2 12.8-32-16-80-22.4-166.4-12.8-201.6 6.4 19.2 12.8 44.8 12.8 70.4 3.2 22.4 16 35.2 28.8 35.2 12.8 3.2 28.8-3.2 41.6-22.4 22.4-41.6 92.8-156.8 163.2-172.8 16-3.2 28.8-22.4 25.6-38.4s-22.4-28.8-38.4-25.6c-70.4 16-128 86.4-166.4 140.8-6.4-25.6-19.2-51.2-38.4-60.8-16-9.6-32-6.4-48 0-64 35.2-44.8 185.6-32 265.6-41.6 41.6-64 112-73.6 153.6l-6.4 6.4c-48 73.6-48 115.2-48 121.6 3.2 25.6 22.4 44.8 44.8 48 6.4 0 60.8 6.4 121.6-51.2 3.2-3.2 6.4-3.2 9.6-3.2 76.8-3.2 268.8-51.2 406.4-416 51.2-28.8 150.4-89.6 160-140.8 3.2-16-9.6-32-25.6-35.2l-44.8-12.8c35.2-19.2 70.4-44.8 86.4-73.6 9.6-16 3.2-35.2-12.8-44.8-6.4-3.2-9.6-3.2-16-3.2z" />
<glyph unicode="&#xe60f;" glyph-name="peizhi" d="M983.474 267.912c1.425-8.485 1.115-18.643-1.115-30.596-2.044-11.954-5.574-24.155-10.529-36.418-4.955-12.325-10.901-23.412-17.899-33.259-6.999-9.91-14.865-16.908-23.226-21.12-8.485-4.274-15.855-6.379-22.235-6.379-6.317 0-13.316 1.363-21.058 4.212-6.999 2.106-15.855 4.026-26.385 5.822-10.653 1.734-21.306 2.044-32.268 1.053-10.901-1.053-21.801-3.345-32.64-6.813s-20.315-9.538-27.933-17.961c-16.908-17.59-26.88-37.657-29.667-60.201s0.372-43.974 9.538-64.413c6.999-14.121 5.946-28.119-3.159-42.24-4.212-5.636-11.025-11.458-20.067-17.404-9.166-6.008-19.262-11.458-30.101-16.413s-22.359-8.795-34.374-11.644c-11.954-2.725-22.483-4.15-31.711-4.15-6.317 0-12.201 2.477-17.899 7.37-5.574 4.955-9.414 10.281-11.644 15.855h-1.053c-7.742 21.863-20.934 40.63-39.577 56.485s-40.258 23.783-64.97 23.783c-23.907 0-45.585-7.928-64.908-23.783-19.386-15.855-32.95-34.312-40.692-55.432-3.53-8.485-8.795-14.617-15.855-18.519-6.937-3.84-14.679-5.76-23.164-5.76-9.848 0-20.934 1.734-33.259 5.326-12.325 3.53-24.65 7.928-36.975 13.192s-23.412 11.458-33.259 18.519c-9.848 6.999-17.218 14.059-22.173 21.058-3.53 4.955-5.45 10.777-5.822 17.404-0.372 6.689 2.292 16.041 7.928 27.995 7.742 16.227 10.715 34.684 8.981 55.494-1.734 20.748-10.715 39.948-26.942 57.538-9.848 10.591-21.801 17.404-35.861 20.563-14.121 3.221-27.437 4.397-40.134 3.716-14.803-0.681-29.915-3.53-45.399-8.485-9.848-2.787-19.695-2.044-29.605 2.168-7.742 2.787-14.926 9.29-21.677 19.448-6.689 10.219-12.635 21.554-17.961 33.817-5.265 12.325-9.29 24.96-12.139 38.028-2.787 13.006-3.53 23.721-2.106 32.206 2.106 15.484 9.105 25.332 21.12 29.543 21.12 8.485 40.072 22.359 56.981 41.745s25.332 41.001 25.332 64.97c0 24.588-8.423 46.080-25.332 64.413s-35.923 31.649-56.981 40.134c-6.194 1.982-11.458 7.061-15.67 15.174s-6.379 16.413-6.379 24.774c0 9.166 1.425 19.386 4.212 30.658s6.503 22.173 11.086 32.764c4.583 10.529 9.91 20.191 15.855 29.048 6.008 8.733 12.511 15.298 19.51 19.51 5.636 3.53 11.148 4.893 16.413 4.212s11.086-2.106 17.404-4.212c21.12-8.485 43.107-11.086 66.023-7.928 22.854 3.159 43.107 13.192 60.697 30.039 8.423 8.485 14.555 18.89 18.457 31.154 3.84 12.387 6.379 24.526 7.37 36.48 1.115 11.954 1.115 22.854 0 32.702-0.991 9.91-1.92 16.908-2.601 21.12-1.425 4.212-2.663 9.166-3.716 14.803s-0.495 10.591 1.548 14.803c4.212 9.848 11.768 18.457 22.73 25.827 10.901 7.37 22.668 13.564 35.365 18.519 12.697 4.893 25.022 8.547 36.975 11.086 11.954 2.477 21.492 3.716 28.49 3.716 9.105 0 16.351-2.973 21.677-8.981 5.265-6.008 8.919-12.201 11.025-18.519 7.742-19.014 20.439-35.675 38.028-50.168 17.59-14.431 38.4-21.677 62.307-21.677 24.65 0 46.452 6.875 65.466 20.625s32.392 31.154 40.134 52.274c2.787 5.636 7.246 11.458 13.192 17.404 5.946 6.008 12.077 8.981 18.519 8.981 9.786 0 20.563-1.363 32.206-4.212 11.644-2.787 23.102-6.689 34.25-11.644 11.396-4.893 21.801-11.272 31.215-19.014 9.538-7.742 17.032-16.165 22.73-25.332 3.53-5.636 4.583-11.768 3.159-18.457s-2.787-11.458-4.212-14.245c-9.166-20.439-11.954-41.868-8.485-64.413 3.53-22.483 13.812-42.24 30.596-59.148 16.908-16.908 37.719-26.199 62.307-27.995 24.65-1.734 47.566 2.292 68.686 12.139 5.574 3.53 12.449 4.955 20.563 4.212s14.865-3.902 20.563-9.476c10.529-9.848 19.819-24.836 27.933-44.903s13.564-40.32 16.351-60.697c1.425-11.954-0.495-21.306-5.698-27.995-5.326-6.627-10.777-11.086-16.475-13.192-21.801-7.742-40.382-21.306-55.866-40.63s-23.226-41.373-23.226-65.961c0-23.969 6.503-44.903 19.448-62.865 13.068-17.899 30.101-30.782 51.159-38.524 4.955-2.787 9.166-5.636 12.697-8.423 7.742-6.317 13.068-14.431 15.855-24.279v0 0zM492.511 172.903c31.649 0 61.626 6.008 89.683 17.961 28.181 11.954 52.645 28.49 73.455 49.61 20.81 21.182 37.161 45.585 49.115 73.394s17.899 57.6 17.899 89.187c0 31.711-5.946 61.44-17.899 89.187-11.954 27.809-28.305 52.15-49.115 72.898s-45.213 37.161-73.455 49.115c-28.057 11.954-58.095 17.961-89.683 17.961-31.649 0-61.44-6.008-89.249-17.961-27.747-11.954-52.088-28.366-72.774-49.115-20.748-20.748-37.161-45.089-49.115-72.898-11.954-27.747-17.961-57.538-17.961-89.187s6.008-61.378 17.961-89.187c11.954-27.747 28.366-52.212 49.115-73.394 20.748-21.12 45.089-37.595 72.836-49.61 27.809-11.954 57.538-17.961 89.187-17.961v0 0z" />
<glyph unicode="&#xe610;" glyph-name="churukou1" d="M146.432 895.42h729.361c80.529-0.039 145.798-65.32 145.818-145.85v-729.363c-0.019-80.544-65.308-145.832-145.85-145.852h-729.329c-80.544 0.019-145.832 65.308-145.852 145.85v729.363c0.019 80.544 65.308 145.832 145.85 145.852h0.002zM653.073-16.282l222.72 164.147-222.72 164.079v-94.208h-506.641v-141.449h506.641v-92.535zM875.793 513.911v141.449h-506.641v94.208l-222.72-164.113 222.72-164.113v92.57h506.641z" />
<glyph unicode="&#xe611;" glyph-name="ico-45" d="M279.808 444.928l16 27.712 232.768-134.4-16-27.712zM510.048 336.736l232.736 134.496 16-27.712-232.736-134.464zM502.4 326.4h32v-268.8h-32zM752 425.6c-19.2 0-32 12.8-32 32v249.6l-198.4 115.2-201.6-115.2v-249.6c0-19.2-12.8-32-32-32s-32 12.8-32 32v268.8c0 12.8 6.4 22.4 16 28.8l230.4 134.4c9.6 6.4 22.4 6.4 32 0l233.6-134.4c9.6-6.4 16-16 16-28.8v-268.8c0-16-16-32-32-32zM288-108.8c-6.4 0-9.6 0-16 3.2l-230.4 134.4c-9.6 6.4-16 16-16 28.8v268.8c0 12.8 6.4 22.4 16 28.8l230.4 134.4c16 9.6 35.2 3.2 44.8-12.8s3.2-35.2-12.8-44.8l-214.4-124.8v-230.4l198.4-115.2 214.4 124.8c16 9.6 35.2 3.2 44.8-12.8s3.2-35.2-12.8-44.8l-230.4-134.4c-6.4 0-12.8-3.2-16-3.2zM752-108.8c-6.4 0-9.6 0-16 3.2l-230.4 134.4c-16 9.6-19.2 28.8-12.8 44.8 9.6 16 28.8 19.2 44.8 12.8l214.4-124.8 198.4 115.2v230.4l-214.4 124.8c-16 9.6-19.2 28.8-12.8 44.8 9.6 16 28.8 19.2 44.8 12.8l230.4-134.4c9.6-6.4 16-16 16-28.8v-268.8c0-12.8-6.4-22.4-16-28.8l-230.4-134.4c-6.4 0-12.8-3.2-16-3.2zM467.2 326.4c0-28.277 22.923-51.2 51.2-51.2s51.2 22.923 51.2 51.2v0c0 28.277-22.923 51.2-51.2 51.2s-51.2-22.923-51.2-51.2v0z" />
<glyph unicode="&#xe612;" glyph-name="ico-46" d="M246.4 601.6c-9.6-3.2-22.4-6.4-32-6.4h-160c-9.6 0-22.4 3.2-32 6.4l-9.6 12.8c-3.2 9.6-6.4 22.4-6.4 32v153.6c0 9.6 3.2 22.4 6.4 32l9.6 9.6c9.6 3.2 22.4 6.4 32 6.4h163.2c9.6 0 22.4-3.2 32-6.4l9.6-9.6c3.2-9.6 6.4-22.4 6.4-32v-156.8c0-9.6-3.2-22.4-6.4-32l-12.8-9.6zM70.4 675.2c0-9.6 6.4-16 16-16h99.2c9.6 0 16 6.4 16 16v92.8c0 9.6-6.4 16-16 16h-99.2c-9.6 0-16-6.4-16-16v-92.8zM246.4 246.4c-9.6-3.2-22.4-6.4-32-6.4h-160c-9.6 0-22.4 3.2-32 6.4l-9.6 9.6c-3.2 9.6-6.4 22.4-6.4 32v156.8c0 9.6 3.2 22.4 6.4 32l9.6 9.6c9.6 3.2 22.4 6.4 32 6.4h163.2c9.6 0 22.4-3.2 32-6.4l9.6-9.6c3.2-9.6 6.4-22.4 6.4-32v-156.8c0-9.6-3.2-22.4-6.4-32l-12.8-9.6zM70.4 320c0-9.6 6.4-16 16-16h99.2c9.6 0 16 6.4 16 16v92.8c0 9.6-6.4 16-16 16h-99.2c-9.6 0-16-6.4-16-16v-92.8zM246.4-108.8c-9.6-3.2-22.4-6.4-32-6.4h-160c-9.6 0-22.4 3.2-32 6.4l-9.6 9.6c-3.2 9.6-6.4 22.4-6.4 32v156.8c0 9.6 3.2 22.4 6.4 32l9.6 9.6c9.6 3.2 22.4 6.4 32 6.4h163.2c9.6 0 22.4-3.2 32-6.4l9.6-9.6c3.2-9.6 6.4-22.4 6.4-32v-156.8c0-9.6-3.2-22.4-6.4-32l-12.8-9.6zM70.4-35.2c0-9.6 6.4-16 16-16h99.2c9.6 0 16 6.4 16 16v92.8c0 9.6-6.4 16-16 16h-99.2c-9.6 0-16-6.4-16-16v-92.8zM377.6-3.2c-3.2-3.2-16-3.2-25.6-3.2h-102.4c-9.6 0-22.4 3.2-32 6.4v19.2c9.6 3.2 22.4 6.4 32 6.4h86.4c9.6 0 16 6.4 16 16v672c0 9.6-6.4 16-16 16h-76.8c-9.6 0-22.4 3.2-32 6.4v19.2c9.6 3.2 22.4 6.4 32 6.4h92.8c9.6 0 19.2-3.2 25.6-3.2s6.4-22.4 6.4-32v-704c0-6.4-3.2-25.6-6.4-25.6zM998.4-108.8c-9.6-3.2-22.4-6.4-32-6.4h-464c-9.6 0-22.4 3.2-32 6.4l-9.6 9.6c-3.2 9.6-6.4 22.4-6.4 32v867.2c0 9.6 3.2 22.4 6.4 32l9.6 9.6c9.6 3.2 22.4 6.4 32 6.4h467.2c9.6 0 22.4-3.2 32-6.4l9.6-9.6c3.2-9.6 6.4-22.4 6.4-32v-870.4c0-9.6-3.2-22.4-6.4-32l-12.8-6.4zM518.4-35.2c0-9.6 6.4-16 16-16h403.2c9.6 0 16 6.4 16 16v803.2c0 9.6-6.4 16-16 16h-403.2c-9.6 0-16-6.4-16-16v-803.2zM883.2 547.2c-9.6-3.2-22.4-6.4-32-6.4h-243.2c-9.6 0-22.4 3.2-32 6.4 0 0-16 6.4-16 25.6s16 25.6 16 25.6c9.6 3.2 22.4 6.4 32 6.4h243.2c9.6 0 22.4-3.2 32-6.4 0 0 16-6.4 16-25.6s-16-25.6-16-25.6zM883.2 342.4c-9.6-3.2-22.4-6.4-32-6.4h-243.2c-9.6 0-22.4 3.2-32 6.4 0 0-16 6.4-16 25.6s16 25.6 16 25.6c9.6 3.2 22.4 6.4 32 6.4h243.2c9.6 0 22.4-3.2 32-6.4 0 0 16-6.4 16-25.6s-16-25.6-16-25.6zM883.2 134.4c-9.6-3.2-22.4-6.4-32-6.4h-243.2c-9.6 0-22.4 3.2-32 6.4 0 0-16 6.4-16 25.6s16 25.6 16 25.6c9.6 3.2 22.4 6.4 32 6.4h243.2c9.6 0 22.4-3.2 32-6.4 0 0 16-6.4 16-25.6s-16-25.6-16-25.6zM499.2 358.4c-9.6-3.2-22.4-6.4-32-6.4h-217.6c-9.6 0-22.4 3.2-32 6.4v19.2c9.6 3.2 22.4 6.4 32 6.4h220.8c9.6 0 22.4-3.2 32-6.4v-9.6c0-9.6-3.2-9.6-3.2-9.6z" />
<glyph unicode="&#xe613;" glyph-name="mobanguanli" d="M917.157-15.729h-377.466v465.389h377.465v-465.389zM591.664 36.797h273.52v360.337h-273.52v-360.337zM484.3-15.729h-377.457v193.579h377.457v-193.579zM158.805 36.797h273.53v88.516h-273.53v-88.516zM917.157 478.221h-810.314v305.508h810.314v-305.508zM158.805 531.32h706.378v199.872h-706.378v-199.872zM484.3 220.102h-377.457v229.558h377.457v-229.558zM158.805 272.076h273.53v125.058h-273.53v-125.058z" />
<glyph unicode="&#xe614;" glyph-name="ico-47" d="M941.317-128h-855.453c-25.441 0-47.702 22.261-47.702 47.702v664.646c0 25.441 22.261 47.702 47.702 47.702h855.453c25.441 0 47.702-22.261 47.702-47.702v-664.646c0-25.441-19.081-47.702-47.702-47.702zM101.764-64.398h823.652v632.845h-823.652v-632.845zM896.795 698.832h-766.41c-19.081 0-31.801 12.72-31.801 31.801s12.72 31.801 31.801 31.801h766.41c19.081 0 31.801-12.72 31.801-31.801s-12.72-31.801-31.801-31.801zM232.149 864.199h562.882M795.031 832.398h-562.882c-19.081 0-31.801 12.72-31.801 31.801s12.72 31.801 31.801 31.801h566.062c19.081 0 31.801-12.72 31.801-31.801s-15.901-31.801-34.981-31.801zM222.609 329.938c0-31.614 25.628-57.242 57.242-57.242s57.242 25.628 57.242 57.242v0c0 31.614-25.628 57.242-57.242 57.242s-57.242-25.628-57.242-57.242v0zM378.435 129.59c0-31.614 25.628-57.242 57.242-57.242s57.242 25.628 57.242 57.242v0c0 31.614-25.628 57.242-57.242 57.242s-57.242-25.628-57.242-57.242v0zM435.677 120.050c-9.54 0-15.901 3.18-22.261 12.72-6.36 6.36-136.745 178.087-143.106 187.627l25.441 19.081c6.36-9.54 92.224-120.845 139.925-181.267l146.286 222.609 25.441-15.901-149.466-228.969c-6.36-9.54-12.72-12.72-22.261-15.901zM537.441 371.28c0-31.614 25.628-57.242 57.242-57.242s57.242 25.628 57.242 57.242v0c0 31.614-25.628 57.242-57.242 57.242s-57.242-25.628-57.242-57.242v0zM690.087 174.112c0-31.614 25.628-57.242 57.242-57.242s57.242 25.628 57.242 57.242v0c0 31.614-25.628 57.242-57.242 57.242s-57.242-25.628-57.242-57.242v0zM734.609 161.391c-6.36 6.36-146.286 187.627-152.646 200.348l25.441 19.081c6.36-9.54 101.764-133.565 152.646-200.348l-25.441-19.081z" />
<glyph unicode="&#xe615;" glyph-name="ziyuan" d="M554.24 425.598l-56.32 14.080c-5.204 21.578-13.354 40.583-24.148 57.758l0.468-0.798 30.080 49.92c1.803 2.485 2.884 5.596 2.884 8.96s-1.081 6.475-2.915 9.005l0.031-0.045-39.040 39.040c-2.485 1.803-5.596 2.884-8.96 2.884s-6.475-1.081-9.005-2.915l0.045 0.031-51.84-27.52c-16.377 10.326-35.382 18.476-55.646 23.41l-1.314 0.27-14.080 56.96c-1.981 6.35-7.807 10.88-14.692 10.88-0.010 0-0.020 0-0.029 0h-53.758c-6.711-0.061-12.343-4.604-14.055-10.776l-0.024-0.103-14.080-56.96c-21.808-5.132-41.038-13.291-58.407-24.15l0.807 0.47-49.92 30.080c-2.485 1.803-5.596 2.884-8.96 2.884s-6.475-1.081-9.005-2.915l0.045 0.031-38.4-41.6c-1.897-2.453-3.041-5.573-3.041-8.96s1.144-6.507 3.066-8.994l-0.025 0.034 29.44-49.92c-9.778-16.4-17.687-35.379-22.729-55.495l-0.311-1.465-56.96-14.080c-7.364-0.656-13.135-6.648-13.439-14.051l-0.001-0.029v-55.040c0.061-6.711 4.604-12.343 10.776-14.055l0.103-0.024 56.96-14.080c5.352-21.581 13.262-40.559 23.579-57.941l-0.539 0.981-26.88-49.92c-1.897-2.453-3.041-5.573-3.041-8.96s1.144-6.507 3.066-8.994l-0.025 0.034 39.040-39.040c2.485-1.803 5.596-2.884 8.96-2.884s6.475 1.081 9.005 2.915l-0.045-0.031 49.28 27.52c16.377-10.326 35.382-18.476 55.646-23.41l1.314-0.27 14.080-56.96c1.736-6.276 7.369-10.819 14.073-10.88h54.407c0.008 0 0.018 0 0.028 0 6.885 0 12.711 4.53 14.663 10.771l0.029 0.109 14.080 56.96c21.578 5.204 40.583 13.354 57.758 24.148l-0.798-0.468 49.92-30.080c2.485-1.803 5.596-2.884 8.96-2.884s6.475 1.081 9.005 2.915l-0.045-0.031 39.040 39.040c1.803 2.485 2.884 5.596 2.884 8.96s-1.081 6.475-2.915 9.005l0.031-0.045-30.080 49.92c10.326 16.377 18.476 35.382 23.41 55.646l0.27 1.314 56.32 14.080c6.547 1.494 11.381 7.203 11.52 14.065v57.615c0.002 0.083 0.003 0.18 0.003 0.278 0 6.292-3.948 11.662-9.501 13.768l-0.101 0.034zM282.881 280.318c-0.762-0.020-1.66-0.032-2.56-0.032-57.261 0-103.68 46.419-103.68 103.68s46.419 103.68 103.68 103.68c57.25 0 103.662-46.401 103.68-103.646v-0.002c0.001-0.195 0.002-0.427 0.002-0.658 0-56.233-45.046-101.945-101.021-103.020l-0.101-0.002zM1004.158 700.157l-44.16 11.52c-4.856 17.77-11.413 33.294-19.714 47.686l0.514-0.966 24.32 40.32c1.456 2.050 2.328 4.603 2.328 7.36s-0.872 5.31-2.354 7.4l0.027-0.040-35.2 30.72c-1.884 1.607-4.348 2.585-7.040 2.585s-5.156-0.978-7.055-2.597l0.015 0.013-40.96-24.32c-12.281 8.891-26.523 16.089-41.842 20.842l-1.038 0.277-14.72 46.080c-1.434 5.138-6.029 8.861-11.509 8.96h-44.171c-0.086 0.002-0.186 0.004-0.287 0.004-5.456 0-10.026-3.793-11.217-8.886l-0.015-0.078-11.52-46.080c-17.689-4.181-33.284-10.795-47.382-19.585l0.662 0.385-40.32 24.32c-1.98 1.654-4.553 2.658-7.36 2.658s-5.38-1.004-7.378-2.673l0.018 0.015-30.72-30.72c-1.777-1.93-2.867-4.518-2.867-7.36s1.090-5.43 2.874-7.368l-0.007 0.008 23.68-40.32c-7.909-13.456-14.287-29.031-18.314-45.528l-0.246-1.192-46.080-11.52c-5.171-1.207-8.964-5.777-8.964-11.233 0-0.101 0.001-0.202 0.004-0.302v0.015-44.16c0.099-5.491 3.822-10.086 8.874-11.5l0.086-0.020 46.080-11.52c3.344-17.803 9.123-33.68 17.063-48.205l-0.423 0.845-23.68-40.96c-1.736-1.831-2.804-4.311-2.804-7.040s1.068-5.209 2.808-7.045l-0.004 0.005 30.72-31.36c2.050-1.456 4.603-2.328 7.36-2.328s5.31 0.872 7.4 2.354l-0.040-0.027 42.24 22.4c13.426-7.787 28.95-14.344 45.317-18.869l1.403-0.331 11.52-46.080c1.207-5.171 5.777-8.964 11.233-8.964 0.101 0 0.202 0.001 0.302 0.004h44.145c5.834 0.242 10.592 4.56 11.51 10.17l0.010 0.070 14.72 44.16c17.501 4.708 32.822 11.273 46.927 19.667l-0.847-0.467 40.96-24.32c1.925-1.498 4.377-2.401 7.040-2.401s5.115 0.904 7.066 2.421l-0.026-0.019 26.88 33.28c1.498 1.925 2.401 4.377 2.401 7.040s-0.904 5.115-2.421 7.066l0.019-0.026-21.12 41.6c7.927 13.258 14.492 28.579 18.901 44.788l0.299 1.292 46.080 11.52c5.138 1.434 8.861 6.029 8.96 11.509v43.531c0.002 0.086 0.004 0.186 0.004 0.287 0 5.456-3.793 10.026-8.886 11.217l-0.078 0.015zM783.359 583.677c-45.95 0-83.2 37.25-83.2 83.2s37.25 83.2 83.2 83.2c45.95 0 83.2-37.25 83.2-83.2v0c0-45.95-37.25-83.2-83.2-83.2v0zM1015.038 135.039l-46.080 11.52c-4.045 17.456-10.67 32.852-19.55 46.661l0.35-0.581 24.32 40.96c1.607 1.884 2.585 4.348 2.585 7.040s-0.978 5.156-2.597 7.055l0.013-0.015-30.72 31.36c-2.050 1.456-4.603 2.328-7.36 2.328s-5.31-0.872-7.4-2.354l0.040 0.027-40.32-24.32c-13.426 7.787-28.95 14.344-45.317 18.869l-1.403 0.331-13.44 46.080c-1.207 5.171-5.777 8.964-11.233 8.964-0.101 0-0.202-0.001-0.302-0.004h-44.145c-5.491-0.099-10.086-3.822-11.5-8.874l-0.020-0.086-11.52-46.080c-17.236-4.335-32.365-10.478-46.357-18.397l0.917 0.477-40.96 24.32c-1.925 1.498-4.377 2.401-7.040 2.401s-5.115-0.904-7.066-2.421l0.026 0.019-31.36-31.36c-1.498-1.925-2.401-4.377-2.401-7.040s0.904-5.115 2.421-7.066l-0.019 0.026 22.4-42.88c-7.927-13.258-14.492-28.579-18.901-44.788l-0.299-1.292-44.8-10.88c-5.138-1.434-8.861-6.029-8.96-11.509v-44.171c-0.002-0.086-0.004-0.186-0.004-0.287 0-5.456 3.793-10.026 8.886-11.217l0.078-0.015 46.080-11.52c4.856-17.77 11.413-33.294 19.714-47.686l-0.514 0.966-24.32-40.32c-1.456-2.050-2.328-4.603-2.328-7.36s0.872-5.31 2.354-7.4l-0.027 0.040 31.36-30.72c1.884-1.607 4.348-2.585 7.040-2.585s5.156 0.978 7.055 2.597l-0.015-0.013 40.96 24.32c13.227-8.53 28.624-15.155 45.089-19.005l0.991-0.195 11.52-46.080c1.434-5.138 6.029-8.861 11.509-8.96h44.171c0.086-0.002 0.186-0.004 0.287-0.004 5.456 0 10.026 3.793 11.217 8.886l0.015 0.078 11.52 46.080c17.689 4.181 33.284 10.795 47.382 19.585l-0.662-0.385 40.32-24.32c1.98-1.654 4.553-2.658 7.36-2.658s5.38 1.004 7.378 2.673l-0.018-0.015 30.72 30.72c1.654 1.98 2.658 4.553 2.658 7.36s-1.004 5.38-2.673 7.378l0.015-0.018-24.32 40.32c8.405 13.435 15.019 29.031 18.985 45.653l0.215 1.067 46.080 11.52c5.171 1.207 8.964 5.777 8.964 11.233 0 0.101-0.001 0.202-0.004 0.302v-0.015 44.16c0.006 0.145 0.010 0.315 0.010 0.486 0 4.861-2.853 9.057-6.976 11.003l-0.074 0.031zM794.879 18.559c-0.189-0.002-0.413-0.002-0.638-0.002-45.95 0-83.2 37.25-83.2 83.2s37.25 83.2 83.2 83.2c45.95 0 83.2-37.25 83.2-83.2 0-0.224-0.001-0.448-0.003-0.672v0.034c-0.359-45.451-37.109-82.2-82.525-82.559h-0.034z" />
<glyph unicode="&#xe616;" glyph-name="ico-48" d="M909.516-128h-795.031c-28.621 0-50.882 22.261-50.882 50.882v922.236c0 28.621 22.261 50.882 50.882 50.882h527.901c19.081 0 41.342-9.54 54.062-22.261l244.87-241.689c12.72-12.72 22.261-34.981 22.261-54.062v-655.106c-3.18-28.621-25.441-50.882-54.062-50.882zM130.385-61.217h763.23v636.025s0 3.18-3.18 6.36l-244.87 244.87h-515.18v-887.255zM906.335 549.366h-248.050c-28.621 0-50.882 22.261-50.882 50.882v225.789c0 19.081 15.901 34.981 34.981 34.981s34.981-15.901 34.981-34.981v-209.888h228.969c19.081 0 34.981-15.901 34.981-34.981 0-15.901-15.901-31.801-34.981-31.801zM330.733 415.801c-63.602 0-111.304 50.882-111.304 111.304s50.882 111.304 111.304 111.304 111.304-50.882 111.304-111.304c0-63.602-50.882-111.304-111.304-111.304zM330.733 568.447c-25.441 0-44.522-19.081-44.522-44.522s19.081-44.522 44.522-44.522c22.261 0 44.522 19.081 44.522 44.522v0c0 25.441-19.081 44.522-44.522 44.522zM686.907 129.59l-311.652 3.18c-19.081 0-38.161 9.54-54.062 22.261-15.901 15.901-25.441 41.342-25.441 63.602v219.429c0 19.081 15.901 34.981 34.981 34.981s34.981-15.901 34.981-34.981v-219.429c0-6.36 3.18-12.72 6.36-15.901 0 0 3.18-3.18 6.36-3.18l311.652-3.18c19.081 0 34.981-15.901 34.981-34.981-3.18-19.081-19.081-31.801-38.161-31.801zM683.727 56.447c-9.54 0-19.081 3.18-25.441 12.72-12.72 15.901-9.54 34.981 3.18 47.702l54.062 44.522-50.882 44.522c-12.72 12.72-15.901 34.981-3.18 47.702s34.981 15.901 47.702 3.18l69.963-60.422c9.54-9.54 15.901-22.261 15.901-38.161 0-12.72-6.36-28.621-19.081-38.161l-73.143-54.062c-6.36-6.36-12.72-9.54-19.081-9.54zM712.348 422.161h-219.429c-9.54 0-15.901 6.36-15.901 15.901s6.36 15.901 15.901 15.901h219.429c9.54 0 15.901-6.36 15.901-15.901s-6.36-15.901-15.901-15.901zM715.528 314.037h-219.429c-9.54 0-15.901 6.36-15.901 15.901s6.36 15.901 15.901 15.901h219.429c9.54 0 15.901-6.36 15.901-15.901 3.18-9.54-6.36-15.901-15.901-15.901z" />
<glyph unicode="&#xe617;" glyph-name="yingyongguanli" d="M849.92 111.616c-4.096-12.288-8.192-24.576-14.336-34.816 0-2.048 32.768-40.96 14.336-61.44l-10.24-10.24c-14.336-14.336-53.248 8.192-61.44 14.336-12.288-6.144-24.576-12.288-36.864-14.336h2.048c0 0-6.144-53.248-34.816-53.248h-10.24c-22.528 0-34.816 45.056-36.864 55.296-12.288 4.096-24.576 8.192-36.864 16.384l2.048-2.048c0 0-43.008-32.768-63.488-12.288l-8.192 8.192c-16.384 16.384 10.24 55.296 14.336 63.488-6.144 10.24-10.24 22.528-14.336 32.768-8.192 2.048-55.296 14.336-55.296 36.864v10.24c0 24.576 43.008 32.768 53.248 34.816 4.096 12.288 8.192 22.528 14.336 34.816-4.096 6.144-30.72 47.104-14.336 63.488l10.24 8.192c18.432 18.432 53.248-8.192 63.488-14.336 10.24 6.144 22.528 10.24 34.816 14.336 2.048 10.24 14.336 53.248 36.864 53.248h10.24c24.576 0 32.768-40.96 34.816-53.248 12.288-4.096 24.576-8.192 34.816-14.336 10.24 6.144 47.104 28.672 61.44 14.336l8.192-10.24c18.432-18.432-6.144-53.248-14.336-61.44 6.144-10.24 10.24-22.528 14.336-34.816 4.096 0 53.248-8.192 53.248-34.816v-10.24c2.048-24.576-38.912-36.864-51.2-38.912zM702.464 263.168c-61.44 0-112.64-51.2-112.64-112.64s51.2-112.64 112.64-112.64c61.44 0 112.64 51.2 112.64 112.64s-49.152 112.64-112.64 112.64zM702.464 74.752c-40.96 0-75.776 32.768-75.776 75.776 0 40.96 32.768 75.776 75.776 75.776 40.96 0 75.776-32.768 75.776-75.776 0-40.96-34.816-75.776-75.776-75.776zM702.464 189.44c-20.48 0-36.864-16.384-36.864-36.864s16.384-36.864 36.864-36.864c20.48 0 36.864 16.384 36.864 36.864 2.048 18.432-16.384 36.864-36.864 36.864zM659.456 338.944c-16.384-4.096-30.72-10.24-45.056-18.432-10.24 8.192-40.96 22.528-63.488 0l-12.288-10.24c-20.48-20.48-4.096-55.296 2.048-65.536-8.192-12.288-12.288-26.624-16.384-40.96l-6.144-4.096c-14.336-2.048-38.912-12.288-45.056-32.768l-40.96-28.672v311.296l274.432 176.128v-235.52c-28.672-4.096-43.008-38.912-47.104-51.2zM135.168 664.576l274.432 155.648 274.432-155.648-274.432-176.128-274.432 176.128zM389.12 136.192l-272.384 194.56v294.912l272.384-176.128v-313.344z" />
<glyph unicode="&#xe618;" glyph-name="jiaoseguanli" d="M887.296 365.568c-18.944 18.944-51.2 35.84-101.888 61.44-25.6 12.8-68.096 33.792-78.336 43.52 43.008 52.736 68.096 113.152 68.096 165.376 0 35.328 0 79.872-19.968 119.296-17.92 35.328-57.856 77.824-147.456 77.824-89.088 0-129.024-42.496-146.944-77.824-18.432-36.864-19.968-77.824-19.968-111.616h54.272c0 29.696 1.024 61.44 14.336 87.552 16.384 32.256 48.64 48.128 98.816 48.128s77.312-15.872 93.696-48.128c14.336-28.16 14.336-63.488 14.336-94.72 0-39.424-20.48-87.552-56.32-131.072l-31.744-38.912 36.352-34.816c13.824-12.8 40.448-27.136 91.136-52.736 43.008-21.504 74.752-37.888 88.064-51.2 23.040-23.040 29.696-62.464 30.208-85.504h-239.104l81.408-59.392h162.816c14.336 0 28.672 5.632 38.912 16.384 10.24 10.24 15.872 24.576 15.872 38.912-0.512 13.312-4.096 84.48-46.592 127.488M120.32-34.304h542.208c14.336 0 28.672 5.632 38.912 16.384 10.24 10.24 15.872 24.576 15.36 38.912-0.512 13.824-3.584 85.504-46.080 128-19.456 19.456-51.2 35.84-101.888 61.44-25.6 12.8-68.096 33.792-78.336 43.52 43.008 53.248 68.096 112.64 68.096 165.376 0 35.328 0 79.872-19.968 119.296-17.92 35.328-57.856 77.824-147.456 77.824-89.088 0-129.024-42.496-147.456-77.824-19.968-39.424-19.968-83.968-19.968-119.296 0-52.224 25.088-112.128 68.096-165.376-10.24-9.728-52.736-31.232-78.336-44.032-50.688-25.088-82.944-41.984-101.888-61.44-42.496-42.496-45.568-113.664-46.080-128 0-14.336 5.632-28.672 15.36-38.912 11.264-10.24 25.088-15.872 39.424-15.872zM155.648 110.080c13.312 13.312 45.056 29.696 88.064 51.2 50.688 25.6 77.824 39.936 91.648 52.736l31.232 34.816-31.744 38.912c-35.84 43.52-55.808 91.648-55.808 131.072 0 31.232 0 61.952 14.336 89.6 16.384 32.256 48.64 48.128 98.816 48.128s82.432-10.752 98.816-43.008c14.336-28.16 14.336-68.608 14.336-99.84 0-39.424-20.48-82.432-55.808-125.952l-31.744-38.912 36.864-34.304c13.824-12.8 35.328-27.136 86.528-52.736 43.008-21.504 74.24-37.888 88.064-51.2 23.040-23.040 29.696-62.464 30.208-84.992h-531.968c0.512 22.528 2.048 62.464 25.088 84.992h3.072z" />
<glyph unicode="&#xe619;" glyph-name="xingzhuang" d="M876.606 833.939c0 34.275-27.785 62.061-62.061 62.061v0h-605.091c-34.275 0-62.061-27.785-62.061-62.061v0-899.879c0-34.275 27.785-62.061 62.061-62.061v0h605.091c34.275 0 62.061 27.785 62.061 62.061v0 899.879zM209.455 833.939h599.273l-0.093-899.879h-599.18v899.879zM752.485 756.364c0 17.138-13.893 31.030-31.030 31.030v0h-434.424c-17.138 0-31.030-13.893-31.030-31.030v0-108.606c0-17.138 13.893-31.030 31.030-31.030v0h434.424c17.138 0 31.030 13.893 31.030 31.030v0 108.606zM690.424 678.788h-372.364v46.545h372.364v-46.545zM752.485 539.152c0 17.138-13.893 31.030-31.030 31.030v0h-434.424c-17.138 0-31.030-13.893-31.030-31.030v0-108.606c0-17.138 13.893-31.030 31.030-31.030v0h434.424c17.138 0 31.030 13.893 31.030 31.030v0 108.606zM690.424 461.576h-372.364v46.545h372.364v-46.545zM624.997 217.212c0 72.123-58.468 130.591-130.591 130.591s-130.591-58.468-130.591-130.591c0-72.123 58.468-130.591 130.591-130.591v0c72.092 0.079 130.512 58.5 130.591 130.584v0.007zM494.406 148.682c-37.848 0-68.53 30.682-68.53 68.53s30.682 68.53 68.53 68.53c37.848 0 68.53-30.682 68.53-68.53v0c-0.044-37.83-30.7-68.486-68.526-68.53h-0.004zM442.182 58.182h-77.576c-17.138 0-31.030-13.893-31.030-31.030s13.893-31.030 31.030-31.030v0h77.576c17.138 0 31.030 13.893 31.030 31.030s-13.893 31.030-31.030 31.030v0zM643.879 58.182h-77.576c-17.138 0-31.030-13.893-31.030-31.030s13.893-31.030 31.030-31.030v0h77.576c17.138 0 31.030 13.893 31.030 31.030s-13.893 31.030-31.030 31.030v0z" />
<glyph unicode="&#xe61a;" glyph-name="ico-49" d="M467.2 428.8c-227.2 0-406.4 99.2-406.4 224s179.2 224 406.4 224 406.4-99.2 406.4-224-179.2-224-406.4-224zM467.2 812.8c-201.6 0-342.4-83.2-342.4-160s140.8-160 342.4-160c201.6 0 342.4 83.2 342.4 160s-140.8 160-342.4 160zM467.2 185.6c-227.2 0-406.4 99.2-406.4 224 0 19.2 12.8 32 32 32s32-12.8 32-32c0-76.8 140.8-160 342.4-160 19.2 0 32-12.8 32-32s-12.8-32-32-32zM467.2-80c-198.4 0-406.4 89.6-406.4 172.8 0 19.2 12.8 32 32 32s32-12.8 32-32c9.6-25.6 147.2-108.8 342.4-108.8 19.2 0 32-12.8 32-32s-12.8-32-32-32zM697.6-54.4h-73.6c-54.4 0-102.4 48-102.4 102.4s41.6 99.2 96 102.4c3.2 83.2 70.4 150.4 153.6 150.4 57.6 0 112-32 137.6-86.4 3.2-6.4 0-16-6.4-22.4-6.4-3.2-16 0-22.4 6.4-22.4 41.6-64 67.2-108.8 67.2-67.2 0-121.6-54.4-121.6-121.6v-12.8c0-9.6-6.4-16-16-16h-6.4c-38.4 0-70.4-32-70.4-70.4s32-70.4 70.4-70.4h73.6c9.6 0 16-6.4 16-16s-9.6-12.8-19.2-12.8zM777.6-16c-9.6 0-16 6.4-16 16v102.4c0 9.6 6.4 16 16 16s16-6.4 16-16v-102.4c0-9.6-9.6-16-16-16zM777.6-44.8c-3.2 0-9.6 0-9.6 3.2l-44.8 41.6c-6.4 6.4-6.4 16 0 22.4s16 6.4 22.4 0l32-28.8 32 28.8c6.4 6.4 16 6.4 22.4 0s6.4-16 0-22.4l-41.6-41.6c-6.4-3.2-9.6-3.2-12.8-3.2zM876.8-44.8c-9.6 0-16 6.4-16 16v102.4c0 9.6 6.4 16 16 16s16-6.4 16-16v-102.4c0-9.6-6.4-16-16-16zM918.4 44.8c-3.2 0-6.4 0-9.6 3.2l-32 28.8-32-28.8c-6.4-6.4-16-6.4-22.4 0s-6.4 16 0 22.4l41.6 41.6c6.4 6.4 16 6.4 22.4 0l41.6-41.6c6.4-6.4 6.4-16 0-22.4 0 0-3.2-3.2-9.6-3.2z" />
<glyph unicode="&#xe61b;" glyph-name="ico-50" d="M790.4 739.2l-259.2 150.4c-16 9.6-35.2-3.2-35.2-19.2v-297.6c0-19.2 19.2-28.8 35.2-19.2l259.2 150.4c16 3.2 16 25.6 0 35.2zM512 140.8c-9.6 0-16 6.4-16 16s6.4 16 12.8 16c54.4 6.4 102.4 44.8 121.6 96 3.2 9.6 12.8 12.8 19.2 9.6 9.6-3.2 12.8-12.8 9.6-19.2-19.2-64-76.8-112-147.2-118.4zM496 3.2c-19.2 0-32 12.8-32 32s12.8 32 32 32c131.2 0 240 99.2 252.8 227.2 3.2 16 16 32 35.2 28.8 16-3.2 32-16 28.8-35.2-16-163.2-153.6-284.8-316.8-284.8zM496-124.8c-240 0-435.2 195.2-435.2 432 0 240 195.2 435.2 435.2 435.2 48 0 99.2-6.4 144-22.4 16-6.4 25.6-25.6 19.2-41.6s-25.6-25.6-41.6-19.2c-38.4 12.8-80 22.4-121.6 22.4-204.8-3.2-371.2-169.6-371.2-374.4s166.4-371.2 371.2-371.2 371.2 166.4 371.2 371.2c0 16 0 32-3.2 48s9.6 32 28.8 35.2c19.2 3.2 32-9.6 35.2-28.8s3.2-35.2 3.2-54.4c0-236.8-195.2-432-435.2-432z" />
<glyph unicode="&#xe61c;" glyph-name="locationInfo" d="M726.075 522.279h-428.443c-19.734 0-35.704-15.969-35.704-35.704s15.97-35.703 35.704-35.703h428.443c19.736 0 35.703 15.968 35.703 35.703s-15.967 35.704-35.703 35.704zM726.075 665.093h-428.443c-19.734 0-35.704-15.969-35.704-35.704s15.97-35.704 35.704-35.704h428.443c19.736 0 35.703 15.97 35.703 35.704s-15.967 35.704-35.703 35.704zM904.592 241.353v495.148c0 39.434-31.97 71.407-71.407 71.407h-642.665c-39.432 0-71.407-31.973-71.407-71.407v-714.071c0-39.436 31.974-71.408 71.407-71.408h421.162c11.352-2.319 23.611 0.919 32.421 9.728l250.379 250.378c8.244 8.246 11.613 19.511 10.11 30.225zM654.667 72.288v128.659h128.66l-128.66-128.659zM833.186 272.355h-214.222c-19.733 0-35.703-15.97-35.703-35.705 0-0.064 0.004-0.128 0.005-0.192-0.001-0.064-0.005-0.128-0.005-0.192v-213.837h-357.036c-19.733 0-35.704 15.968-35.704 35.703v642.665c0 19.734 15.971 35.704 35.704 35.704h571.256c19.736 0 35.704-15.97 35.704-35.704v-428.442z" />
<glyph unicode="&#xe61d;" glyph-name="ico-51" d="M512-102.4c-268.8 0-486.4 217.6-486.4 486.4s217.6 486.4 486.4 486.4c268.8 0 486.4-217.6 486.4-486.4s-217.6-486.4-486.4-486.4zM512 838.4c-252.8 0-454.4-204.8-454.4-454.4s201.6-454.4 454.4-454.4 454.4 204.8 454.4 454.4-204.8 454.4-454.4 454.4zM512 32c-195.2 0-352 160-352 352 0 115.2 57.6 220.8 150.4 288 16 9.6 35.2 6.4 44.8-6.4 9.6-16 6.4-35.2-6.4-44.8-76.8-54.4-124.8-144-124.8-236.8 0-156.8 128-288 288-288s288 128 288 288c0 96-48 185.6-124.8 236.8-16 9.6-19.2 28.8-9.6 44.8s28.8 19.2 44.8 9.6c96-64 153.6-172.8 153.6-291.2-3.2-192-160-352-352-352zM512 403.2c-19.2 0-32 12.8-32 32v307.2c0 19.2 12.8 32 32 32s32-12.8 32-32v-304c0-19.2-16-35.2-32-35.2z" />
<glyph unicode="&#xe61e;" glyph-name="ico-52" d="M524.8 339.2c-153.6 0-275.2 124.8-275.2 275.2s124.8 275.2 275.2 275.2c153.6 0 275.2-124.8 275.2-275.2s-121.6-275.2-275.2-275.2zM524.8 825.6c-118.4 0-211.2-96-211.2-211.2s96-211.2 211.2-211.2 211.2 96 211.2 211.2-92.8 211.2-211.2 211.2zM380.8 598.4c-9.6 0-16 6.4-16 16 0 89.6 73.6 160 160 160 9.6 0 16-6.4 16-16s-6.4-16-16-16c-70.4 0-128-57.6-128-128 0-9.6-6.4-16-16-16zM457.6-121.6h-393.6c-19.2 0-32 12.8-32 32 0 272 220.8 489.6 496 489.6 83.2 0 166.4-19.2 236.8-60.8 16-9.6 22.4-28.8 12.8-44.8s-28.8-22.4-44.8-12.8c-64 35.2-134.4 51.2-208 51.2-224 3.2-412.8-172.8-428.8-390.4h361.6c19.2 0 32-12.8 32-32s-12.8-32-32-32zM960 12.8h-268.8c-19.2 0-32 12.8-32 32s12.8 32 32 32h268.8c19.2 0 32-12.8 32-32s-12.8-32-32-32zM825.6-121.6c-19.2 0-32 12.8-32 32v268.8c0 19.2 12.8 32 32 32s32-12.8 32-32v-268.8c0-19.2-12.8-32-32-32z" />
<glyph unicode="&#xe61f;" glyph-name="suofang" d="M147.4 708.9l136.3-136.3 39 39.1 1.9 1.8-134.2 134.3h139.4v57.9h-240.3v-238.7h57.9zM322.5 156.5l-39.1 39.1-1.8 1.9-134.2-134.2v139.3h-57.9v-240.3h238.6v57.9h-141.9zM694.2 805.7v-57.9h139.4l-134.2-134.3 39.1-39.1 1.8-1.7 136.3 136.2v-141.9h57.9v238.7zM876.6 63.2l-134.3 134.2-39.1-39.1-1.7-1.8 136.2-136.3h-141.9v-57.9h238.7v240.3h-57.9zM512 604.9c-121.8 0-220.9-99.1-220.9-220.8s99.1-220.9 220.9-220.9 220.9 99 220.9 220.8-99.1 220.9-220.9 220.9zM675 384c0-89.9-73.1-163-163-163s-163 73.1-163 163c0 89.9 73.1 163 163 163s163-73.1 163-163z" />
<glyph unicode="&#xe620;" glyph-name="cunchujuan" d="M925.27 626.75v-488.75c0-112.46-185.35-203.64-414-203.64s-414 91.18-414 203.64v488.75c0 112.46 185.34 203.63 414 203.63s414-91.17 414-203.63zM842.47 138v488.75c0 43.070-125.73 122.18-331.18 122.18s-331.18-79.11-331.18-122.18v-488.75c0-43.070 125.73-122.18 331.18-122.18s331.18 79.13 331.18 122.18zM925.27 626.75c0-112.47-185.35-203.64-414-203.64s-414 91.17-414 203.64 185.34 203.63 414 203.63 414-91.17 414-203.63zM842.47 626.75c0 43.070-125.73 122.18-331.18 122.18s-331.18-79.11-331.18-122.18 125.73-122.18 331.18-122.18 331.18 79.1 331.18 122.18zM511.29 341.66c-205.45 0-331.18 79.1-331.18 122.18h-82.79c0-112.47 185.34-203.64 414-203.64s414 91.17 414 203.64h-82.8c-0.050-43.080-125.78-122.18-331.23-122.18zM511.29 178.75c-205.45 0-331.18 79.11-331.18 122.18h-82.79c0-112.47 185.34-203.64 414-203.64s414 91.17 414 203.64h-82.8c-0.050-43.070-125.78-122.18-331.23-122.18z" />
<glyph unicode="&#xe621;" glyph-name="ico-53" d="M552.96 347.766c-151.237 0-270.966 122.88-270.966 270.966s122.88 270.966 270.966 270.966c151.237 0 274.117-119.729 274.117-270.966s-122.88-270.966-274.117-270.966zM552.96 826.683c-116.578 0-207.951-94.523-207.951-207.951s94.523-207.951 207.951-207.951 207.951 94.523 207.951 207.951-91.372 207.951-207.951 207.951zM411.175 602.978c-9.452 0-15.754 6.302-15.754 15.754 0 88.222 72.468 157.538 157.538 157.538 9.452 0 15.754-6.302 15.754-15.754s-6.302-15.754-15.754-15.754c-69.317 0-126.031-56.714-126.031-126.031 0-9.452-6.302-15.754-15.754-15.754zM486.794-105.945h-387.545c-18.905 0-31.508 12.603-31.508 31.508 0 267.815 217.403 482.068 488.369 482.068 81.92 0 163.84-18.905 233.157-59.865 15.754-9.452 22.055-28.357 12.603-44.111s-28.357-22.055-44.111-12.603c-63.015 34.658-132.332 50.412-204.8 50.412-223.705 0-406.449-170.142-422.203-387.545h356.037c18.905 0 31.508-12.603 31.508-31.508s-12.603-28.357-31.508-28.357zM805.022-20.874c-34.658 0-59.865 28.357-59.865 59.865s28.357 59.865 59.865 59.865 59.865-28.357 59.865-59.865-28.357-59.865-59.865-59.865zM805.022 70.498c-15.754 0-28.357-12.603-28.357-28.357s12.603-28.357 28.357-28.357 28.357 12.603 28.357 28.357-12.603 28.357-28.357 28.357zM745.157-128c-3.151 0-6.302 0-9.452 3.151l-34.658 22.055c-6.302 3.151-9.452 12.603-6.302 18.905 6.302 18.905 6.302 37.809-3.151 53.563s-25.206 28.357-40.96 31.508c-6.302 0-12.603 6.302-12.603 15.754v47.262c0 6.302 6.302 15.754 12.603 15.754 18.905 3.151 34.658 12.603 40.96 31.508 9.452 18.905 9.452 37.809 3.151 56.714-3.151 6.302 0 15.754 6.302 18.905l37.809 22.055c6.302 3.151 15.754 3.151 22.055-3.151 9.452-15.754 28.357-22.055 44.111-22.055 18.905 0 34.658 9.452 47.262 25.206 6.302 6.302 12.603 9.452 22.055 3.151l37.809-22.055c6.302-3.151 9.452-12.603 6.302-18.905-6.302-18.905-6.302-37.809 3.151-53.563s25.206-28.357 40.96-31.508c6.302 0 12.603-6.302 12.603-15.754v-47.262c0-6.302-6.302-15.754-12.603-15.754-18.905-3.151-34.658-12.603-40.96-31.508-9.452-15.754-9.452-37.809-3.151-56.714 3.151-6.302 0-15.754-6.302-18.905l-37.809-22.055c-6.302-3.151-15.754-3.151-22.055 3.151-9.452 15.754-28.357 25.206-44.111 22.055-18.905 0-34.658-9.452-47.262-25.206-6.302-3.151-9.452-6.302-15.754-6.302zM729.403-83.889l15.754-9.452c15.754 15.754 40.96 25.206 63.015 25.206s44.111-9.452 59.865-25.206l15.754 9.452c-6.302 22.055-3.151 47.262 9.452 69.317s31.508 37.809 50.412 44.111v22.055c-22.055 6.302-40.96 22.055-50.412 44.111-12.603 22.055-15.754 47.262-9.452 69.317l-18.905 6.302c-34.658-34.658-91.372-31.508-122.88 0l-15.754-9.452c6.302-22.055 3.151-47.262-9.452-69.317-9.452-22.055-28.357-37.809-53.563-44.111v-22.055c22.055-6.302 40.96-22.055 50.412-44.111 15.754-15.754 18.905-40.96 15.754-66.166z" />
<glyph unicode="&#xe622;" glyph-name="previous" d="M192.126 347.591l226.201-226.201c6.59-6.59 10.665-15.693 10.665-25.748 0-20.111-16.303-36.414-36.414-36.414-10.055 0-19.159 4.076-25.748 10.665l-284.281 284.281c-7.638 7.642-12.361 18.197-12.361 29.855s4.724 22.213 12.361 29.855l284.28 284.222c6.59 6.59 15.693 10.665 25.748 10.665 20.111 0 36.414-16.303 36.414-36.414 0-10.055-4.076-19.159-10.665-25.748l-226.201-226.201h727.653c20.108 0 36.409-16.301 36.409-36.409s-16.301-36.409-36.409-36.409h-727.653z" />
<glyph unicode="&#xe623;" glyph-name="thickProvisioningSupport" d="M512 240.647c-20.616 0-40.303 5.316-55.462 15.019l-335.616 214.481c-19.153 12.262-30.375 31.247-30.797 52.144-0.394 20.897 10.041 40.472 28.688 53.663l337.922 239.203c30.178 21.347 80.325 21.375 110.559 0l337.894-239.203c18.647-13.219 29.109-32.766 28.688-53.663s-11.644-39.881-30.797-52.144l-335.616-214.481c-15.188-9.703-34.875-15.019-55.462-15.019zM140.019 523.247c0.591-0.253 2.053-2.025 5.316-4.106l335.616-214.481c15.413-9.872 46.575-9.9 62.1 0l335.616 214.481c2.107 1.25 3.881 2.827 5.312 4.682l0.032 0.043c-0.591 0.281-1.997 2.138-5.175 4.359l-337.894 239.231c-14.4 10.209-43.481 10.181-57.881 0l-337.894-239.203c-2.051-1.334-3.764-3.003-5.107-4.946l-0.040-0.060zM512 102.694c-19.8 0-39.628 5.063-55.434 15.159l-335.644 214.481c-19.153 12.262-30.375 31.275-30.797 52.144-0.422 20.897 10.041 40.444 28.688 53.663l41.063 29.053 37.575-36.45-52.313-40.303c-2.051-1.334-3.764-3.003-5.107-4.946l-0.040-0.060c0.591-0.253 2.053-2.025 5.316-4.106l335.616-214.481c16.256-10.378 45.844-10.378 62.1 0l335.616 214.481c2.107 1.25 3.881 2.827 5.312 4.682l0.032 0.043c-0.591 0.281-1.997 2.137-5.175 4.359l-52.313 40.303 37.575 36.45 41.063-29.053c18.647-13.219 29.109-32.766 28.688-53.663s-11.644-39.881-30.797-52.144l-335.616-214.481c-15.778-10.069-35.578-15.131-55.406-15.131zM512-35.119c-19.8 0-39.628 5.063-55.434 15.159l-335.644 214.481c-19.153 12.262-30.375 31.275-30.797 52.144-0.422 20.897 10.041 40.444 28.688 53.662l41.063 29.053 37.575-36.45-52.313-40.303c-2.051-1.334-3.764-3.003-5.107-4.946l-0.040-0.060c0.591-0.253 2.053-2.025 5.316-4.106l335.616-214.481c16.256-10.378 45.844-10.406 62.1 0l335.616 214.481c2.107 1.25 3.881 2.827 5.312 4.682l0.032 0.043c-0.591 0.281-1.997 2.137-5.175 4.359l-52.313 40.303 37.575 36.45 41.063-29.053c18.647-13.219 29.109-32.766 28.688-53.663s-11.644-39.881-30.797-52.144l-335.616-214.481c-15.778-10.069-35.578-15.131-55.406-15.131z" />
<glyph unicode="&#xe624;" glyph-name="ico-54" d="M547.2-86.4h-444.8c-25.6 0-48 22.4-48 48v848c0 25.6 22.4 48 48 48h819.2c25.6 0 48-22.4 48-48v-422.4c0-19.2-12.8-32-32-32s-32 12.8-32 32v406.4h-787.2v-816h428.8c19.2 0 32-12.8 32-32s-12.8-32-32-32zM83.2 646.4h851.2v-64h-851.2zM950.4 76.8c-9.6-3.2-22.4-6.4-32-6.4h-246.4c-9.6 0-22.4 3.2-32 6.4 0 0-19.2 6.4-19.2 25.6s19.2 25.6 19.2 25.6c9.6 3.2 22.4 6.4 32 6.4h246.4c9.6 0 22.4-3.2 32-6.4 0 0 19.2-6.4 19.2-25.6s-19.2-25.6-19.2-25.6zM796.8-67.2c-19.2 0-25.6 19.2-25.6 19.2-3.2 9.6-6.4 22.4-6.4 32v243.2c0 9.6 3.2 22.4 6.4 32 0 0 6.4 19.2 25.6 19.2s25.6-19.2 25.6-19.2c3.2-9.6 6.4-22.4 6.4-32v-243.2c0-9.6-3.2-22.4-6.4-32 0 0-6.4-19.2-25.6-19.2zM556.8 412.8h-288c-9.6 0-16 6.4-16 16s6.4 16 16 16h291.2c9.6 0 16-6.4 16-16s-9.6-16-19.2-16zM432 297.6h-163.2c-9.6 0-16 6.4-16 16s6.4 16 16 16h163.2c9.6 0 16-6.4 16-16s-6.4-16-16-16zM432 182.4h-163.2c-9.6 0-16 6.4-16 16s6.4 16 16 16h163.2c9.6 0 16-6.4 16-16s-6.4-16-16-16z" />
<glyph unicode="&#xe625;" glyph-name="ico-55" d="M956.8-118.4h-892.8c-25.6 0-48 22.4-48 48v892.8c0 25.6 22.4 48 48 48h892.8c25.6 0 48-22.4 48-48v-892.8c0-25.6-22.4-48-48-48zM80-54.4h860.8v860.8h-860.8v-860.8zM275.2 620.8c0-9.6-6.4-16-16-16h-35.2c-9.6 0-16 6.4-16 16v35.2c0 6.4 9.6 16 16 16h35.2c9.6 0 16-6.4 16-16v-35.2zM409.6 620.8c0-9.6-6.4-16-16-16h-35.2c-9.6 0-16 6.4-16 16v35.2c0 9.6 6.4 16 16 16h35.2c9.6 0 16-6.4 16-16v-35.2zM544 620.8c0-9.6-6.4-16-16-16h-35.2c-9.6 0-16 6.4-16 16v35.2c0 9.6 6.4 16 16 16h35.2c6.4 0 16-9.6 16-16v-35.2zM675.2 620.8c0-9.6-6.4-16-16-16h-35.2c-9.6 0-16 6.4-16 16v35.2c0 6.4 9.6 16 16 16h35.2c9.6 0 16-6.4 16-16v-35.2zM809.6 620.8c0-9.6-6.4-16-16-16h-35.2c-9.6 0-16 6.4-16 16v35.2c0 9.6 6.4 16 16 16h35.2c9.6 0 16-6.4 16-16v-35.2zM275.2 96c0-9.6-6.4-16-16-16h-35.2c-9.6 0-16 6.4-16 16v35.2c0 9.6 6.4 16 16 16h35.2c9.6 0 16-6.4 16-16v-35.2zM409.6 96c0-9.6-6.4-16-16-16h-35.2c-9.6 0-16 6.4-16 16v35.2c0 9.6 6.4 16 16 16h35.2c9.6 0 16-6.4 16-16v-35.2zM544 96c0-9.6-6.4-16-16-16h-35.2c-9.6 0-16 6.4-16 16v35.2c0 9.6 6.4 16 16 16h35.2c9.6 0 16-6.4 16-16v-35.2zM675.2 96c0-9.6-6.4-16-16-16h-35.2c-9.6 0-16 6.4-16 16v35.2c0 9.6 6.4 16 16 16h35.2c9.6 0 16-6.4 16-16v-35.2zM809.6 96c0-9.6-6.4-16-16-16h-35.2c-9.6 0-16 6.4-16 16v35.2c0 9.6 6.4 16 16 16h35.2c9.6 0 16-6.4 16-16v-35.2zM793.6 272c9.6 0 16-6.4 16-16v-35.2c0-9.6-6.4-16-16-16h-35.2c-9.6 0-16 6.4-16 16v35.2c0 9.6 6.4 16 16 16h35.2zM793.6 406.4c9.6 0 16-6.4 16-16v-35.2c0-9.6-6.4-16-16-16h-35.2c-9.6 0-16 6.4-16 16v35.2c0 9.6 6.4 16 16 16h35.2zM793.6 537.6c9.6 0 16-6.4 16-16v-35.2c0-9.6-6.4-16-16-16h-35.2c-9.6 0-16 6.4-16 16v35.2c0 9.6 6.4 16 16 16h35.2zM259.2 272c9.6 0 16-6.4 16-16v-35.2c0-9.6-6.4-16-16-16h-35.2c-9.6 0-16 6.4-16 16v35.2c0 9.6 6.4 16 16 16h35.2zM259.2 406.4c9.6 0 16-6.4 16-16v-35.2c0-9.6-6.4-16-16-16h-35.2c-9.6 0-16 6.4-16 16v35.2c0 9.6 6.4 16 16 16h35.2zM259.2 537.6c9.6 0 16-6.4 16-16v-35.2c0-9.6-6.4-16-16-16h-35.2c-9.6 0-16 6.4-16 16v35.2c0 9.6 6.4 16 16 16h35.2z" />
<glyph unicode="&#xe626;" glyph-name="yingyongzhongxin" d="M423.332 333.311h-240c-17.673 0-32-14.327-32-32v-240c0-17.673 14.327-32 32-32h240c17.673 0 32 14.327 32 32v240c0 17.672-14.327 32-32 32zM391.332 93.311h-176v176h176v-176zM423.332 720.689h-240c-17.673 0-32-14.327-32-32v-240c0-17.673 14.327-32 32-32h240c17.673 0 32 14.327 32 32v240c0 17.674-14.327 32-32 32zM391.332 480.689h-176v176h176v-176zM820.669 333.311h-240c-17.673 0-32-14.327-32-32v-240c0-17.673 14.327-32 32-32h240c17.673 0 32 14.327 32 32v240c0 17.672-14.327 32-32 32zM788.669 93.311h-176v176h176v-176zM863.297 589.317l-140 140c-12.498 12.497-32.758 12.497-45.256 0l-140-140c-12.496-12.497-12.496-32.758 0-45.255l140-140c6.249-6.249 14.438-9.373 22.628-9.373s16.379 3.124 22.628 9.373l140 140c12.496 12.497 12.496 32.758 0 45.255zM700.669 471.944l-94.745 94.745 94.745 94.745 94.745-94.745-94.745-94.745z" />
<glyph unicode="&#xe627;" glyph-name="pingjuchaxun" d="M933.647 353.882v481.882h-843.294v-903.529h361.412v-60.235h-421.647v1024h963.765v-542.118h-60.235zM210.824 775.529h481.882v-60.235h-481.882v60.235zM210.824 353.882v60.235h180.706v-60.235h-180.706zM210.824 594.824h301.176v-60.235h-301.176v60.235zM662.588 414.118c116.435 0 210.824-94.389 210.824-210.824 0-47.345-16.143-90.534-42.526-125.711l157.816-157.816-42.586-42.586-157.816 157.816c-35.177-26.383-78.366-42.526-125.711-42.526-116.435 0-210.824 94.389-210.824 210.824s94.389 210.824 210.824 210.824zM662.588 52.706c83.185 0 150.588 67.403 150.588 150.588s-67.403 150.588-150.588 150.588c-83.185 0-150.588-67.403-150.588-150.588s67.403-150.588 150.588-150.588z" />
<glyph unicode="&#xe628;" glyph-name="ico-56" d="M816 22.4h-585.6c-25.6 0-48 22.4-48 48v758.4c0 25.6 22.4 48 48 48h585.6c25.6 0 48-22.4 48-48v-758.4c0-25.6-22.4-48-48-48zM246.4 86.4h553.6v726.4h-553.6v-726.4zM988.8-128h-931.2c-19.2 0-32 12.8-32 32v384c0 19.2 12.8 32 32 32s32-12.8 32-32v-352h867.2v352c0 19.2 12.8 32 32 32s32-12.8 32-32v-384c0-19.2-16-32-32-32zM441.6 576c-12.8 0-25.6 9.6-28.8 22.4-6.4 16 3.2 35.2 19.2 41.6l160 57.6c16 6.4 35.2-3.2 41.6-19.2 6.4-19.2-3.2-38.4-19.2-41.6l-160-57.6c-6.4-3.2-9.6-3.2-12.8-3.2zM441.6 393.6c-12.8 0-25.6 9.6-28.8 22.4-6.4 16 3.2 35.2 19.2 41.6l160 57.6c16 6.4 35.2-3.2 41.6-19.2s-3.2-35.2-19.2-41.6l-160-57.6c-6.4-3.2-9.6-3.2-12.8-3.2zM441.6 211.2c-12.8 0-25.6 9.6-28.8 22.4-6.4 16 3.2 35.2 19.2 41.6l160 57.6c16 6.4 35.2-3.2 41.6-19.2s-3.2-35.2-19.2-41.6l-160-57.6c-6.4 0-9.6-3.2-12.8-3.2z" />
<glyph unicode="&#xe629;" glyph-name="ico-57" d="M611.2 556.8h-195.2c-25.6 0-48 22.4-48 48v195.2c0 25.6 22.4 48 48 48h195.2c25.6 0 48-22.4 48-48v-195.2c0-28.8-22.4-48-48-48zM432 620.8h163.2v163.2h-163.2v-163.2zM256-83.2h-198.4c-25.6 0-48 22.4-48 48v195.2c0 25.6 22.4 48 48 48h198.4c25.6 0 48-22.4 48-48v-195.2c0-28.8-22.4-48-48-48zM73.6-19.2h163.2v163.2h-163.2v-163.2zM608-83.2h-195.2c-25.6 0-48 22.4-48 48v195.2c0 25.6 22.4 48 48 48h195.2c25.6 0 48-22.4 48-48v-195.2c0-28.8-22.4-48-48-48zM428.8-19.2h163.2v163.2h-163.2v-163.2zM960-83.2h-195.2c-25.6 0-48 22.4-48 48v195.2c0 25.6 22.4 48 48 48h195.2c25.6 0 48-22.4 48-48v-195.2c0-28.8-19.2-48-48-48zM780.8-19.2h163.2v163.2h-163.2v-163.2zM857.6 249.6c-9.6 0-16 6.4-16 16v134.4h-662.4v-134.4c0-9.6-6.4-16-16-16s-16 6.4-16 16v150.4c0 9.6 6.4 16 16 16h694.4c9.6 0 16-6.4 16-16v-150.4c0-6.4-9.6-16-16-16zM508.8 249.6c-9.6 0-16 6.4-16 16v230.4c0 9.6 6.4 16 16 16s16-6.4 16-16v-230.4c0-6.4-6.4-16-16-16z" />
<glyph unicode="&#xe62a;" glyph-name="ico-58" d="M108.8 35.2h-64v336c0 259.2 208 470.4 467.2 470.4s467.2-211.2 467.2-467.2v-329.6h-64v326.4c0 224-182.4 403.2-403.2 403.2-224 3.2-403.2-179.2-403.2-403.2v-336zM156.8-25.6h-64c-25.6 0-48 22.4-48 48v224c0 25.6 22.4 48 48 48h64c25.6 0 48-22.4 48-48v-224c0-25.6-22.4-48-48-48zM108.8 38.4h32v192h-32v-192zM268.8-73.6h-80c-25.6 0-48 22.4-48 48v320c0 25.6 22.4 48 48 48h80c25.6 0 48-22.4 48-48v-320c0-25.6-22.4-48-48-48zM204.8-9.6h48v288h-48v-288zM931.2-25.6h-64c-25.6 0-48 22.4-48 48v224c0 25.6 22.4 48 48 48h64c25.6 0 48-22.4 48-48v-224c0-25.6-19.2-48-48-48zM883.2 38.4h32v192h-32v-192zM835.2-70.4h-80c-25.6 0-48 22.4-48 48v320c0 25.6 22.4 48 48 48h80c25.6 0 48-22.4 48-48v-320c0-25.6-19.2-48-48-48zM771.2-6.4h48v288h-48v-288zM614.4 57.6c-9.6 0-16 6.4-16 16v124.8c0 9.6 6.4 16 16 16s16-6.4 16-16v-124.8c0-9.6-6.4-16-16-16zM512 19.2c-9.6 0-16 6.4-16 16v198.4c0 9.6 6.4 16 16 16s16-6.4 16-16v-198.4c0-6.4-6.4-16-16-16zM409.6 57.6c-9.6 0-16 6.4-16 16v124.8c0 9.6 6.4 16 16 16s16-6.4 16-16v-124.8c0-9.6-6.4-16-16-16z" />
<glyph unicode="&#xe62b;" glyph-name="ico-59" d="M953.6-60.8h-896c-25.6 0-48 22.4-48 48v358.4c0 25.6 22.4 48 48 48h169.6c19.2 0 41.6-12.8 51.2-32l70.4-128h313.6l73.6 128c9.6 19.2 32 28.8 51.2 28.8h166.4c25.6 0 48-22.4 48-48v-358.4c0-25.6-22.4-44.8-48-44.8zM73.6 3.2h864v326.4h-147.2l-70.4-128c-9.6-19.2-32-28.8-51.2-28.8h-320c-19.2 0-41.6 12.8-51.2 32l-70.4 128h-153.6v-329.6zM41.6 316.8c-6.4 0-9.6 0-16 3.2-16 9.6-19.2 28.8-12.8 44.8l220.8 374.4c12.8 19.2 32 28.8 54.4 28.8h432c19.2 0 41.6-12.8 51.2-28.8l227.2-374.4c9.6-16 3.2-35.2-9.6-44.8s-35.2-3.2-44.8 9.6l-227.2 374.4h-428.8l-217.6-371.2c-6.4-9.6-16-16-28.8-16zM595.2 563.2h-179.2c-9.6 0-16 6.4-16 16s6.4 16 16 16h179.2c9.6 0 16-6.4 16-16s-6.4-16-16-16zM627.2 412.8h-243.2c-9.6 0-16 6.4-16 16s6.4 16 16 16h243.2c9.6 0 16-6.4 16-16s-6.4-16-16-16z" />
<glyph unicode="&#xe62c;" glyph-name="zu1776" horiz-adv-x="1088" d="M960 64h-832c-70.4 0-128 57.6-128 128v576c0 70.4 57.6 128 128 128h832c70.4 0 128-57.6 128-128v-576c0-70.4-57.6-128-128-128zM128 832c-38.4 0-64-25.6-64-64v-576c0-38.4 25.6-64 64-64h832c38.4 0 64 25.6 64 64v576c0 38.4-25.6 64-64 64h-832zM512 307.2c-6.4 0-19.2 6.4-25.6 12.8l-160 179.2c-12.8 12.8-12.8 32 0 44.8s32 12.8 44.8 0l140.8-160 198.4 243.2c12.8 12.8 32 12.8 44.8 6.4 12.8-12.8 12.8-32 6.4-44.8l-224-268.8c-6.4-12.8-12.8-12.8-25.6-12.8zM544-128c-19.2 0-32 12.8-32 32v192c0 19.2 12.8 32 32 32s32-12.8 32-32v-192c0-19.2-12.8-32-32-32zM736-128h-384c-19.2 0-32 12.8-32 32s12.8 32 32 32h384c19.2 0 32-12.8 32-32s-12.8-32-32-32z" />
<glyph unicode="&#xe62d;" glyph-name="ico-60" d="M505.6 243.2c-6.4 0-12.8 3.2-12.8 9.6l-73.6 147.2-41.6-64c-3.2-3.2-9.6-6.4-12.8-6.4h-144c-9.6 0-16 6.4-16 16s6.4 16 16 16h134.4l51.2 83.2c3.2 6.4 9.6 9.6 12.8 6.4 6.4 0 9.6-3.2 12.8-9.6l70.4-140.8 76.8 198.4c3.2 6.4 6.4 9.6 16 9.6 6.4 0 12.8-6.4 16-12.8l41.6-137.6h137.6c9.6 0 16-6.4 16-16s-6.4-16-16-16h-150.4c-6.4 0-12.8 3.2-16 12.8l-32 105.6-73.6-188.8c0-9.6-3.2-12.8-12.8-12.8zM950.4-48c-9.6 0-16 3.2-22.4 9.6l-131.2 134.4c-12.8 12.8-12.8 32 0 44.8s32 12.8 44.8 0l131.2-131.2c12.8-12.8 12.8-32 0-44.8-6.4-9.6-16-12.8-22.4-12.8zM505.6-51.2c-236.8 0-425.6 192-425.6 425.6 0 236.8 192 425.6 425.6 425.6 236.8 0 425.6-192 425.6-425.6 3.2-233.6-188.8-425.6-425.6-425.6zM505.6 739.2c-198.4 0-361.6-163.2-361.6-364.8s163.2-361.6 361.6-361.6c201.6 0 361.6 163.2 361.6 361.6s-160 364.8-361.6 364.8z" />
<glyph unicode="&#xe62e;" glyph-name="fenquguanli" d="M748.313-65.869c-0.109 0-0.238 0-0.367 0-56.939 0-108.647 22.398-146.794 58.864l0.080-0.076-1.95 1.837h-0.037l-2.025 1.95c-38.609 38.436-62.5 91.627-62.5 150.398 0 0.218 0 0.436 0.001 0.655v-0.034 187.873c0 14.236 11.54 25.776 25.776 25.776s25.776-11.54 25.776-25.776v0-187.873c0-43.303 16.834-84.020 47.428-114.613l1.65-1.687c29.056-28.292 68.794-45.741 112.606-45.741 0.126 0 0.252 0 0.377 0h-0.020c0.149 0 0.325-0.001 0.502-0.001 44.615 0 85.003 18.097 114.223 47.352l0.002 0.002c29.278 29.209 47.391 69.597 47.391 114.215 0 0.166 0 0.333-0.001 0.499v-0.026c0 42.741-16.459 83.045-46.303 113.526l-1.087 1.050c-29.208 29.344-69.631 47.503-114.296 47.503-0.138 0-0.276 0-0.414-0.001h-64.016c-13.514 0.92-24.128 12.109-24.128 25.776s10.614 24.855 24.049 25.771l0.080 0.004h64.037c0.184 0.001 0.402 0.001 0.621 0.001 58.79 0 111.996-23.907 150.426-62.529l0.009-0.009 1.425-1.575c37.802-38.287 61.15-90.922 61.15-149.011 0-0.178 0-0.357-0.001-0.535v0.028c0-56.988-22.233-110.602-62.574-150.943-38.462-38.698-91.723-62.65-150.578-62.65-0.181 0-0.362 0-0.543 0.001h0.028zM275.65-65.869c-56.238 0-109.402 21.745-149.594 61.225l-1.275 1.162c-38.744 38.503-62.725 91.824-62.725 150.746 0 0.162 0 0.323 0.001 0.485v-0.025c0 57.101 22.233 110.752 62.537 151.093 38.44 38.631 91.645 62.538 150.435 62.538 0.218 0 0.436 0 0.655-0.001h187.877c14.21 0 25.757-11.548 25.757-25.72v-187.911c0-56.988-22.233-110.602-62.574-150.943-38.462-38.698-91.723-62.65-150.578-62.65-0.181 0-0.362 0-0.543 0.001h0.028zM275.65 309.803c-43.303 0-84.020-16.871-114.613-47.465-29.297-29.144-47.428-69.487-47.428-114.066 0-0.193 0-0.385 0.001-0.578v0.030c0-43.341 16.834-84.020 47.428-114.613l1.162-1.2c29.066-28.582 68.963-46.228 112.982-46.228 0.165 0 0.33 0 0.494 0.001h-0.025c0.154-0.001 0.335-0.001 0.517-0.001 44.61 0 84.993 18.098 114.207 47.352l0.002 0.002c29.278 29.209 47.391 69.597 47.391 114.215 0 0.166 0 0.333-0.001 0.499v-0.026 162.078h-162.116zM560.44 406.757c-14.209 0.021-25.72 11.545-25.72 25.757 0 0 0 0 0 0v0 187.836c-0.001 0.195-0.001 0.427-0.001 0.658 0 58.79 23.907 111.996 62.529 150.426l0.009 0.009c38.44 38.631 91.645 62.538 150.435 62.538 0.218 0 0.436 0 0.655-0.001h-0.034c0.195 0.001 0.427 0.001 0.658 0.001 58.79 0 111.996-23.907 150.426-62.529l2.558-2.558 1.35-1.612c36.323-38.069 58.675-89.745 58.675-146.641 0-0.102 0-0.204 0-0.306v0.016c0-56.951-22.233-110.602-62.574-150.906-38.471-38.721-91.752-62.687-150.631-62.687-0.163 0-0.325 0-0.488 0.001h-187.848zM748.313 782.428c-0.144 0-0.315 0.001-0.486 0.001-44.598 0-84.962-18.13-114.122-47.422l-0.006-0.006c-29.298-29.166-47.428-69.53-47.428-114.128 0-0.184 0-0.368 0.001-0.551v0.028-162.041h162.041c0.152-0.001 0.331-0.001 0.511-0.001 44.619 0 85.007 18.113 114.212 47.388l0.003 0.003c29.277 29.191 47.391 69.565 47.391 114.168 0 0.17 0 0.339-0.001 0.509v-0.026c0 0.135 0.001 0.295 0.001 0.455 0 43.986-17.616 83.858-46.177 112.945l0.024-0.024-1.35 1.312c-29.157 29.276-69.501 47.391-114.075 47.391-0.189 0-0.378 0-0.568-0.001h0.029zM275.65 406.757c-0.119 0-0.259 0-0.4 0-56.973 0-108.704 22.444-146.833 58.973l0.076-0.073-2.1 1.987-0.037-0.037-1.8 1.725c-38.609 38.453-62.5 91.659-62.5 150.444 0 0.202 0 0.403 0.001 0.605v-0.031c0 57.101 22.233 110.752 62.537 151.093 38.44 38.631 91.645 62.538 150.435 62.538 0.218 0 0.436 0 0.655-0.001h-0.034c0.195 0.001 0.427 0.001 0.658 0.001 58.79 0 111.996-23.907 150.426-62.529l0.009-0.009 1.462-1.612c37.778-38.244 61.113-90.83 61.113-148.866 0-0.216 0-0.433-0.001-0.649v0.034-187.836c-0.021-14.217-11.54-25.736-25.755-25.757h-187.913zM275.65 782.428c-0.144 0-0.315 0.001-0.486 0.001-44.598 0-84.962-18.13-114.122-47.422l-0.006-0.006c-29.298-29.166-47.428-69.53-47.428-114.128 0-0.184 0-0.368 0.001-0.551v0.028c0-43.303 16.834-84.020 47.428-114.613l1.65-1.687c29.056-28.292 68.794-45.741 112.606-45.741 0.126 0 0.252 0 0.377 0h162.096v162.041c0 42.741-16.459 83.045-46.303 113.564l-1.125 1.050c-29.193 29.321-69.591 47.466-114.227 47.466-0.162 0-0.324 0-0.486-0.001h0.025z" />
<glyph unicode="&#xe62f;" glyph-name="ico-61" d="M137.6 342.4h3.2c16 0 28.8 12.8 32 28.8 12.8 131.2 99.2 240 224 284.8 19.2-44.8 64-76.8 118.4-76.8 70.4 0 131.2 57.6 131.2 131.2s-57.6 131.2-131.2 131.2c-67.2 0-121.6-51.2-128-118.4-153.6-51.2-262.4-185.6-278.4-345.6 0-16 12.8-32 28.8-35.2zM515.2 774.4c35.2 0 67.2-28.8 67.2-67.2s-28.8-67.2-67.2-67.2c-38.4 3.2-67.2 32-67.2 70.4s28.8 64 67.2 64zM652.8 22.4c-44.8-19.2-89.6-28.8-140.8-28.8-80 0-160 28.8-220.8 80 16 22.4 22.4 44.8 22.4 73.6 0 70.4-57.6 131.2-131.2 131.2s-131.2-57.6-131.2-131.2 57.6-131.2 131.2-131.2c19.2 0 41.6 6.4 57.6 12.8 73.6-67.2 169.6-102.4 268.8-102.4 57.6 0 112 12.8 166.4 35.2 16 6.4 22.4 25.6 16 41.6-3.2 19.2-22.4 25.6-38.4 19.2zM121.6 147.2c0 35.2 28.8 67.2 67.2 67.2s67.2-28.8 67.2-67.2-32-67.2-70.4-67.2-64 32-64 67.2zM912 252.8c6.4 25.6 9.6 54.4 9.6 83.2 0 131.2-64 252.8-166.4 329.6-12.8 9.6-35.2 6.4-44.8-6.4s-6.4-35.2 6.4-44.8c89.6-64 140.8-169.6 140.8-278.4 0-19.2-3.2-38.4-6.4-60.8h-12.8c-70.4 0-131.2-57.6-131.2-131.2s57.6-131.2 131.2-131.2c70.4 0 131.2 57.6 131.2 131.2-3.2 48-25.6 86.4-57.6 108.8zM838.4 80c-35.2 0-67.2 28.8-67.2 67.2s28.8 67.2 67.2 67.2 67.2-28.8 67.2-67.2-32-67.2-67.2-67.2z" />
<glyph unicode="&#xe630;" glyph-name="ico-62" d="M752 534.4c-12.8 12.8-32 12.8-44.8 3.2l-153.6-140.8-83.2 86.4c-6.4 6.4-12.8 9.6-22.4 9.6s-16-3.2-22.4-9.6l-147.2-140.8c-12.8-12.8-12.8-32 0-44.8 3.2-6.4 12.8-9.6 22.4-9.6s16 3.2 22.4 9.6l121.6 118.4 83.2-86.4c12.8-12.8 32-12.8 44.8-3.2l176 163.2c12.8 9.6 12.8 32 3.2 44.8zM928 163.2h-6.4v521.6h6.4c19.2 0 32 12.8 32 32s-12.8 32-32 32h-832c-19.2 0-32-12.8-32-32s12.8-32 32-32h6.4v-521.6h-6.4c-19.2 0-32-12.8-32-32s12.8-32 32-32h384v-83.2h-70.4c-19.2 0-32-12.8-32-32s12.8-32 32-32h208c19.2 0 32 12.8 32 32s-12.8 32-32 32h-73.6v83.2h384c19.2 0 32 12.8 32 32s-12.8 32-32 32zM169.6 684.8h691.2v-521.6h-691.2v521.6z" />
<glyph unicode="&#xe631;" glyph-name="ico-63" d="M512 790.4c28.8 0 64-35.2 92.8-108.8l57.6 28.8c-38.4 92.8-89.6 144-150.4 144s-115.2-51.2-153.6-147.2l60.8-22.4c25.6 64 60.8 105.6 92.8 105.6zM512-22.4c-32 0-64 41.6-92.8 105.6l-60.8-19.2c38.4-96 92.8-150.4 153.6-150.4s115.2 54.4 153.6 150.4l-60.8 22.4c-25.6-67.2-60.8-108.8-92.8-108.8zM934.4 272c0 38.4-28.8 67.2-67.2 67.2s-67.2-28.8-67.2-67.2c0-38.4 28.8-67.2 67.2-67.2 0-9.6 0-16-6.4-25.6-22.4-41.6-131.2-44.8-278.4 12.8 9.6 6.4 22.4 12.8 32 16 230.4 134.4 361.6 313.6 300.8 416-51.2 89.6-224 83.2-419.2-6.4-67.2 28.8-131.2 48-188.8 57.6-99.2 16-172.8-3.2-201.6-57.6-12.8-19.2-19.2-48-9.6-92.8-6.4-9.6-9.6-19.2-9.6-32 0-38.4 28.8-67.2 67.2-67.2s67.2 28.8 67.2 67.2c0 35.2-28.8 67.2-67.2 67.2 0 9.6 0 19.2 6.4 28.8 16 25.6 67.2 38.4 140.8 25.6 38.4-6.4 80-16 121.6-32-6.4-3.2-9.6-6.4-16-9.6-105.6-60.8-195.2-134.4-252.8-208-64-80-80-153.6-51.2-208 25.6-44.8 76.8-64 147.2-64s160 22.4 252.8 64c92.8-41.6 188.8-70.4 268.8-70.4 64 0 115.2 19.2 140.8 64 9.6 19.2 19.2 48 9.6 92.8 9.6 6.4 12.8 19.2 12.8 28.8zM160 188.8c-16 28.8 0 80 44.8 137.6 3.2 6.4 9.6 12.8 16 19.2 51.2-48 102.4-86.4 172.8-124.8l67.2 28.8c-67.2 38.4-147.2 96-195.2 144 48 44.8 105.6 89.6 172.8 128 19.2 12.8 41.6 22.4 60.8 32 28.8-12.8 54.4-25.6 83.2-41.6 48-28.8 92.8-57.6 131.2-89.6l48 44.8c-41.6 35.2-99.2 73.6-147.2 102.4-12.8 6.4-25.6 12.8-38.4 22.4 76.8 28.8 144 44.8 195.2 44.8 44.8 0 76.8-9.6 89.6-32 35.2-60.8-76.8-211.2-278.4-329.6-198.4-124.8-387.2-147.2-422.4-86.4z" />
<glyph unicode="&#xe632;" glyph-name="ico-64" d="M899.2 566.4h-192v140.8c0 25.6-22.4 48-48 48h-275.2c-25.6 0-48-22.4-48-48v-140.8h-192c-25.6 0-48-22.4-48-48v-492.8c0-25.6 22.4-48 48-48h758.4c25.6 0 48 22.4 48 48v492.8c-3.2 28.8-22.4 48-51.2 48zM883.2 44.8h-153.6v54.4c0 19.2-12.8 32-32 32s-32-12.8-32-32v-54.4h-112v54.4c0 19.2-12.8 32-32 32s-32-12.8-32-32v-54.4h-112v54.4c0 19.2-12.8 32-32 32s-32-12.8-32-32v-54.4h-156.8v457.6h192c25.6 0 48 22.4 48 48v140.8h243.2v-140.8c0-25.6 22.4-48 48-48h192v-457.6zM592 304l-160 144h-12.8v-259.2h28.8v144l160-144h16v259.2h-32z" />
<glyph unicode="&#xe633;" glyph-name="ico-65" d="M854.4 208h-9.6l-233.6 406.4c12.8 19.2 22.4 44.8 22.4 67.2 0 67.2-54.4 121.6-121.6 121.6s-121.6-54.4-121.6-121.6c0-25.6 6.4-48 22.4-67.2l-236.8-406.4h-9.6c-67.2 0-121.6-54.4-121.6-121.6s54.4-121.6 121.6-121.6c51.2 0 92.8 28.8 112 73.6v-6.4h467.2c19.2-41.6 60.8-67.2 108.8-67.2 67.2 0 121.6 54.4 121.6 121.6s-54.4 121.6-121.6 121.6zM512 739.2c32 0 57.6-25.6 57.6-57.6 0-16-6.4-28.8-16-41.6-9.6-9.6-25.6-16-41.6-16-32 0-57.6 25.6-57.6 57.6s25.6 57.6 57.6 57.6zM169.6 28.8c-32 0-57.6 25.6-57.6 57.6s25.6 57.6 57.6 57.6 57.6-25.6 57.6-57.6-25.6-57.6-57.6-57.6zM736 99.2h-448c-3.2 35.2-22.4 67.2-51.2 86.4l224 387.2c16-6.4 32-12.8 51.2-12.8s35.2 3.2 51.2 12.8l224-387.2c-28.8-19.2-48-51.2-51.2-86.4zM854.4 28.8c-32 0-57.6 25.6-57.6 57.6s25.6 57.6 57.6 57.6 57.6-25.6 57.6-57.6-25.6-57.6-57.6-57.6zM563.2 310.4l-38.4 6.4-19.2 28.8 32 54.4c-28.8 3.2-60.8-9.6-76.8-38.4s-12.8-64 3.2-86.4l-35.2-57.6c-9.6-16-3.2-35.2 9.6-44.8 6.4-3.2 9.6-3.2 16-3.2 9.6 0 22.4 6.4 28.8 16l35.2 57.6c32-3.2 60.8 9.6 80 38.4 16 28.8 12.8 60.8-3.2 86.4l-32-57.6z" />
<glyph unicode="&#xe634;" glyph-name="ico-66" d="M515.2 374.4c-16 48-48 86.4-92.8 112-9.6 6.4-22.4 9.6-35.2 12.8-16 6.4-35.2-6.4-38.4-22.4-6.4-16 6.4-35.2 22.4-38.4 9.6-3.2 16-6.4 22.4-9.6 28.8-16 51.2-41.6 60.8-73.6s6.4-67.2-6.4-96l-86.4-163.2c-32-60.8-108.8-86.4-169.6-54.4-28.8 16-51.2 41.6-60.8 73.6s-6.4 67.2 6.4 96l54.4 102.4c9.6 16 3.2 35.2-12.8 41.6-16 9.6-35.2 3.2-41.6-12.8l-54.4-102.4c-22.4-44.8-28.8-96-12.8-144s48-86.4 92.8-112c28.8-12.8 57.6-22.4 86.4-22.4 70.4 0 134.4 38.4 169.6 102.4l83.2 163.2c22.4 48 25.6 99.2 12.8 147.2zM316.8 281.6c9.6-6.4 22.4-9.6 35.2-12.8h9.6c12.8 0 25.6 9.6 32 22.4 6.4 16-6.4 35.2-22.4 38.4-9.6 3.2-16 6.4-22.4 9.6-28.8 16-51.2 41.6-60.8 73.6s-6.4 67.2 6.4 96l80 163.2c16 28.8 41.6 51.2 73.6 60.8s67.2 6.4 96-6.4c28.8-16 51.2-41.6 60.8-73.6s6.4-67.2-6.4-96l-54.4-102.4c-9.6-16-3.2-35.2 12.8-41.6 16-9.6 35.2-3.2 41.6 12.8l54.4 102.4c22.4 44.8 28.8 96 12.8 144s-48 86.4-92.8 112c-44.8 22.4-96 28.8-144 12.8s-86.4-48-112-92.8l-83.2-163.2c-22.4-44.8-28.8-96-12.8-144s51.2-89.6 96-115.2zM745.6 403.2h166.4c19.2 0 32 12.8 32 32s-12.8 32-32 32h-166.4c-19.2 0-32-12.8-32-32s16-32 32-32zM912 246.4h-278.4c-19.2 0-32-12.8-32-32s12.8-32 32-32h278.4c19.2 0 32 12.8 32 32s-12.8 32-32 32zM912 28.8h-422.4c-19.2 0-32-12.8-32-32s12.8-32 32-32h422.4c19.2 0 32 12.8 32 32s-12.8 32-32 32z" />
<glyph unicode="&#xe635;" glyph-name="zhujizhuangtai" d="M243.2 224h535.47v234.67h-535.47v-234.67zM307.2 394.67h407.47v-106.67h-407.47v106.67zM597.7 597.33h64v-85.33h-64zM349.87 371.2h64v-64h-64zM465.070 371.2h64v-64h-64zM726.45 689.22h64v-176.61h-64zM854.27 763.73h64v-251.13h-64zM857.6 385.66c0-189.13-153.87-342.99-342.99-342.99s-342.99 153.86-342.99 342.99 153.86 342.99 342.99 342.99c29.070 0 57.93-3.64 85.79-10.81l21.28 82.64c-34.8 8.96-70.83 13.5-107.070 13.5-236.18 0-428.32-192.15-428.32-428.33s192.15-428.32 428.32-428.32c236.18 0 428.32 192.15 428.32 428.32h-85.33z" />
<glyph unicode="&#xe636;" glyph-name="ico-67" d="M473.6 6.4h-310.4c-16 0-28.8 12.8-28.8 32v720c0 19.2 12.8 32 28.8 32h620.8c16 0 28.8-12.8 28.8-32v-166.4c0-19.2 12.8-32 32-32s32 12.8 32 32v166.4c0 54.4-41.6 96-92.8 96h-620.8c-51.2 0-92.8-41.6-92.8-96v-720c0-54.4 41.6-96 92.8-96h310.4c19.2 0 32 12.8 32 32s-12.8 32-32 32zM700.8 627.2c0 19.2-12.8 32-32 32h-403.2c-19.2 0-32-12.8-32-32s12.8-32 32-32h403.2c19.2 0 32 16 32 32zM604.8 464c0 19.2-12.8 32-32 32h-307.2c-19.2 0-32-12.8-32-32s12.8-32 32-32h307.2c19.2 0 32 12.8 32 32zM265.6 332.8c-19.2 0-32-12.8-32-32s12.8-32 32-32h188.8c19.2 0 32 12.8 32 32s-12.8 32-32 32h-188.8zM860.8 214.4c38.4 0 70.4 16 99.2 41.6 54.4 54.4 54.4 140.8 0 195.2-25.6 25.6-60.8 41.6-99.2 41.6s-70.4-16-99.2-41.6c-44.8-44.8-51.2-118.4-19.2-169.6l-60.8-60.8c-41.6 22.4-89.6 16-124.8-19.2-19.272-19.233-31.194-45.824-31.194-75.2s11.922-55.967 31.192-75.198l0.002-0.002c19.2-19.2 48-32 76.8-32 19.2 0 38.4 6.4 51.2 16l86.4-60.8v-9.6c0-38.4 32-70.4 70.4-70.4s70.4 32 70.4 70.4-32 70.4-70.4 70.4c-12.8 0-22.4-3.2-32-9.6l-80 57.6c6.4 12.8 9.6 28.8 9.6 44.8s-3.2 35.2-12.8 48l60.8 60.8c22.4-16 48-22.4 73.6-22.4zM809.6 406.4c12.8 12.8 32 22.4 54.4 22.4s38.4-6.4 54.4-22.4c28.8-28.8 28.8-76.8 0-105.6s-76.8-28.8-105.6 0c-32 28.8-32 76.8-3.2 105.6zM604.8 96c-16 16-16 44.8 0 60.8 9.6 9.6 19.2 12.8 28.8 12.8s22.4-3.2 28.8-12.8c9.6-9.6 12.8-19.2 12.8-28.8 0-12.8-3.2-22.4-12.8-28.8-16-19.2-41.6-22.4-57.6-3.2z" />
<glyph unicode="&#xe637;" glyph-name="ico-68" d="M697.6 752l-198.4 115.2-198.4-115.2v-230.4l198.4-115.2 198.4 115.2v230.4zM633.6 560l-134.4-76.8-134.4 76.8v153.6l134.4 76.8 134.4-76.8v-153.6zM73.6 364.8v-230.4l198.4-115.2 198.4 115.2v230.4l-198.4 115.2-198.4-115.2zM406.4 172.8l-134.4-76.8-134.4 76.8v153.6l134.4 76.8 134.4-76.8v-153.6zM732.8 480l-198.4-115.2v-230.4l198.4-115.2 198.4 115.2v230.4l-198.4 115.2zM867.2 172.8l-134.4-76.8-134.4 76.8v153.6l134.4 76.8 134.4-76.8v-153.6z" />
<glyph unicode="&#xe638;" glyph-name="ico-69" d="M499.2 608c-28.8 0-54.4-12.8-76.8-32-35.2-35.2-38.4-89.6-16-131.2l-44.8-44.8c-32 16-70.4 12.8-96-16-32-32-32-83.2 0-115.2 16-16 38.4-25.6 57.6-25.6 16 0 28.8 6.4 38.4 12.8l67.2-48v-6.4c0-28.8 25.6-54.4 54.4-54.4s54.4 25.6 54.4 54.4c0 28.8-25.6 54.4-54.4 54.4-9.6 0-16-3.2-25.6-6.4l-60.8 44.8c6.4 9.6 6.4 22.4 6.4 35.2s0 25.6-9.6 35.2l48 48c16-12.8 38.4-16 57.6-16 28.8 0 54.4 12.8 76.8 32 41.6 41.6 41.6 108.8 0 150.4-22.4 16-48 28.8-76.8 28.8zM345.6 310.4c-12.8-16-32-16-44.8-3.2s-12.8 35.2 0 48c6.4 6.4 16 9.6 22.4 9.6s16-3.2 22.4-9.6c6.4-6.4 9.6-16 9.6-22.4 0-12.8-3.2-19.2-9.6-22.4zM544 464c-22.4-22.4-57.6-22.4-80 0-25.6 22.4-25.6 57.6-3.2 80 9.6 9.6 25.6 16 41.6 16s28.8-6.4 41.6-16c19.2-22.4 19.2-60.8 0-80zM864 851.2h-585.6c-35.2 0-67.2-28.8-67.2-67.2v-60.8h-80c-35.2 0-67.2-28.8-67.2-64v-681.6c0-22.4 9.6-41.6 28.8-54.4 12.8-6.4 25.6-12.8 38.4-12.8 6.4 0 16 0 22.4 3.2l272 134.4 262.4-131.2h3.2c19.2-6.4 44.8-3.2 60.8 6.4 19.2 12.8 28.8 32 28.8 54.4v83.2l54.4-19.2c6.4-3.2 16-3.2 22.4-3.2 12.8 0 25.6 3.2 38.4 12.8 19.2 12.8 28.8 32 28.8 54.4v678.4c6.4 38.4-25.6 67.2-60.8 67.2zM720-25.6s-3.2 0 0 0l-265.6 131.2h-3.2c-16 6.4-32 6.4-44.8 0l-272-134.4-6.4 688s0 3.2 3.2 3.2h585.6s3.2 0 3.2-3.2v-684.8zM867.2 105.6l-3.2-3.2-80 25.6v531.2c0 35.2-28.8 67.2-67.2 67.2h-441.6v57.6s0 3.2 3.2 3.2h585.6s3.2 0 3.2-3.2v-678.4z" />
<glyph unicode="&#xe639;" glyph-name="ico-70" d="M921.6 275.2c-32 32-76.8 51.2-124.8 51.2-22.4 0-41.6-3.2-60.8-9.6l-131.2 185.6c6.4 3.2 12.8 9.6 19.2 16 32 32 51.2 76.8 51.2 124.8s-19.2 92.8-51.2 124.8-76.8 51.2-124.8 51.2-92.8-19.2-124.8-51.2-51.2-76.8-51.2-124.8 19.2-92.8 51.2-124.8c6.4-6.4 12.8-9.6 19.2-16l-131.2-182.4c-19.2 6.4-41.6 12.8-60.8 12.8-99.2 0-176-80-176-176s80-176 176-176 176 80 176 176c0 51.2-22.4 99.2-60.8 131.2l134.4 188.8c16-3.2 32-6.4 48-6.4s32 3.2 48 6.4l134.4-188.8c-38.4-32-60.8-80-60.8-134.4 0-48 19.2-92.8 51.2-124.8s76.8-51.2 124.8-51.2 92.8 19.2 124.8 51.2 51.2 76.8 51.2 124.8-19.2 86.4-51.2 121.6zM198.4 35.2c-60.8 0-112 51.2-112 112s51.2 112 112 112 112-51.2 112-112-51.2-112-112-112zM496 528c-28.8 0-57.6 12.8-80 32-22.4 22.4-32 48-32 80 0 28.8 12.8 57.6 32 80 22.4 22.4 51.2 32 80 32s57.6-12.8 80-32c22.4-22.4 32-51.2 32-80s-12.8-57.6-32-80c-22.4-22.4-48-32-80-32zM793.6 35.2c-28.8 0-57.6 12.8-80 32-22.4 22.4-32 51.2-32 80 0 60.8 51.2 112 112 112 28.8 0 57.6-12.8 80-32 22.4-22.4 32-51.2 32-80 3.2-60.8-48-112-112-112zM793.6 195.2c-25.6 0-44.8-19.2-44.8-44.8s19.2-44.8 44.8-44.8 44.8 19.2 44.8 44.8-19.2 44.8-44.8 44.8zM153.6 150.4c0-24.742 20.058-44.8 44.8-44.8s44.8 20.058 44.8 44.8v0c0 24.742-20.058 44.8-44.8 44.8s-44.8-20.058-44.8-44.8v0z" />
<glyph unicode="&#xe63a;" glyph-name="ico-71" d="M851.2 822.4h-684.8c-54.4 0-96-41.6-96-96v-470.4c0-54.4 41.6-96 96-96h310.4v-137.6h-121.6c-9.6 0-16-6.4-16-16s6.4-16 16-16h304c9.6 0 16 6.4 16 16s-6.4 16-16 16h-121.6v137.6h310.4c54.4 0 96 41.6 96 96v470.4c3.2 54.4-41.6 96-92.8 96zM883.2 256c0-19.2-12.8-32-32-32h-684.8c-19.2 0-32 12.8-32 32v470.4c0 19.2 12.8 32 32 32h684.8c19.2 0 32-12.8 32-32v-470.4z" />
<glyph unicode="&#xe63b;" glyph-name="ico-72" d="M825.6 185.6l-297.6-172.8c-9.6-6.4-22.4-6.4-32 0l-297.6 172.8c-9.6 6.4-16 16-16 28.8v147.2c22.4 9.6 41.6 25.6 48 51.2 12.8 41.6-9.6 86.4-51.2 99.2s-86.4-9.6-99.2-51.2c-12.8-38.4 6.4-80 44.8-96 0-3.2-3.2-6.4-3.2-9.6v-140.8c0-35.2 19.2-67.2 48-83.2l297.6-172.8c16-9.6 32-12.8 48-12.8s32 3.2 48 12.8l297.6 172.8c16 9.6 19.2 28.8 12.8 44.8-12.8 12.8-32 19.2-48 9.6zM105.6 451.2c6.4 19.2 25.6 35.2 44.8 35.2 3.2 0 9.6 0 16-3.2 25.6-6.4 38.4-35.2 32-60.8s-38.4-38.4-60.8-32c-25.6 9.6-41.6 35.2-32 60.8zM902.4 406.4c0 3.2 3.2 6.4 3.2 9.6v140.8c0 35.2-19.2 67.2-48 83.2l-297.6 172.8c-28.8 16-67.2 16-96 0l-300.8-172.8c-16-6.4-19.2-28.8-9.6-41.6 6.4-16 25.6-22.4 41.6-12.8l297.6 172.8c9.6 6.4 22.4 6.4 32 0l297.6-172.8c9.6-6.4 16-16 16-28.8v-147.2c-22.4-9.6-41.6-25.6-48-51.2-6.4-19.2-3.2-41.6 6.4-60.8s25.6-32 48-38.4c6.4-3.2 16-3.2 22.4-3.2 35.2 0 67.2 22.4 76.8 57.6 16 35.2-3.2 76.8-41.6 92.8zM918.4 320c-6.4-25.6-35.2-38.4-60.8-32s-38.4 35.2-32 60.8c6.4 19.2 25.6 35.2 44.8 35.2 3.2 0 9.6 0 16-3.2 25.6-9.6 38.4-35.2 32-60.8zM512 544c-6.4 0-16-6.4-16-16v-128h-128c-9.6 0-16-6.4-16-16s6.4-16 16-16h128v-128c0-9.6 6.4-16 16-16s16 6.4 16 16v128h128c9.6 0 16 6.4 16 16s-6.4 16-16 16h-128v128c0 9.6-6.4 16-16 16z" />
<glyph unicode="&#xe63c;" glyph-name="ico-73" d="M918.4 416c-38.4 38.4-89.6 48-124.8 54.4-3.2 70.4-22.4 131.2-64 179.2-80 92.8-204.8 99.2-214.4 99.2-182.4-6.4-259.2-144-278.4-236.8-140.8-19.2-179.2-137.6-179.2-201.6 0-169.6 128-220.8 198.4-224 92.8 0 166.4 25.6 214.4 76.8 41.6 44.8 54.4 99.2 57.6 134.4l76.8-70.4 48 51.2-153.6 140.8-156.8-121.6 41.6-57.6 76.8 57.6c-3.2-25.6-12.8-60.8-38.4-89.6-35.2-38.4-89.6-54.4-160-54.4-12.8 0-131.2 12.8-131.2 153.6 0 6.4 3.2 128 144 134.4h28.8l3.2 28.8c0 6.4 22.4 195.2 214.4 201.6 0 0 102.4-6.4 163.2-76.8 35.2-41.6 51.2-96 48-163.2l-3.2-41.6 38.4 3.2s67.2 3.2 108.8-35.2c25.6-22.4 38.4-57.6 38.4-102.4-3.2-16-25.6-99.2-102.4-105.6h-268.8v-70.4h272c112 9.6 160 115.2 169.6 166.4v6.4c-6.4 73.6-25.6 124.8-67.2 163.2z" />
<glyph unicode="&#xe63d;" glyph-name="ico-74" d="M320 444.8c0-22.4 3.2-44.8 9.6-67.2l560 425.6-691.2-675.2v-48h44.8l163.2 176c38.4-28.8 105.6-54.4 156.8-54.4 134.4 0 425.6 473.6 425.6 608 0 60.8 0 60.8-60.8 60.8-134.4 0-608-291.2-608-425.6zM912 102.4c0-64-48-128-118.4-128h-588.8c-57.6 0-115.2 64-115.2 118.4v588.8c0 80 60.8 115.2 128 115.2h224c70.4 32 86.4 41.6 163.2 73.6h-406.4c-102.4 0-182.4-80-182.4-182.4v-608c0-102.4 83.2-182.4 182.4-182.4h608c102.4 0 182.4 83.2 182.4 182.4v406.4c-32-76.8-44.8-89.6-76.8-150.4v-233.6z" />
<glyph unicode="&#xe63e;" glyph-name="ico-75" d="M499.2 851.2c-259.2 0-470.4-211.2-470.4-470.4s211.2-470.4 470.4-470.4 470.4 211.2 470.4 470.4-211.2 470.4-470.4 470.4zM499.2-16c-220.8 0-400 179.2-400 400s179.2 396.8 400 396.8 400-179.2 400-400-179.2-396.8-400-396.8zM403.2 390.4l96-323.2 92.8 323.2-92.8 323.2-96-323.2zM537.6 390.4c0-22.4-16-38.4-38.4-38.4s-38.4 16-38.4 38.4 16 38.4 38.4 38.4c19.2-3.2 38.4-19.2 38.4-38.4z" />
<glyph unicode="&#xe63f;" glyph-name="ico-76" d="M832 816h-339.2c-28.8 0-25.6-51.2-25.6-51.2v-28.8h342.4c35.2 0 64-28.8 64-64 0 0 3.2-598.4-6.4-620.8-9.6-25.6-12.8-38.4-28.8-51.2-19.2-12.8-44.8-6.4-44.8-6.4s-9.6-70.4 22.4-83.2c0 0 28.8-9.6 60.8-6.4 41.6 3.2 76.8 9.6 89.6 38.4 6.4 16 12.8 44.8 12.8 99.2v636.8c0 83.2 3.2 137.6-147.2 137.6zM211.2 736h172.8c0 48 3.2 76.8-16 80h-156.8c-121.6 0-144-51.2-144-144v-176c28.8-6.4 57.6-6.4 80-6.4v182.4c0 35.2 28.8 64 64 64zM67.2 419.2v-281.6c0-80 16-153.6 144-144h579.2v44.8s0 67.2-41.6 86.4h-537.6c-67.2 0-64 32-64 64v227.2c-32 0-60.8 0-80 3.2zM377.6 672s-38.4-179.2-227.2-182.4v-73.6c124.8 3.2 310.4 54.4 323.2 320h-89.6c-3.2-19.2-3.2-38.4-6.4-64zM707.2 569.6c-44.8 0-80-35.2-80-80s35.2-80 80-80 80 35.2 80 80-35.2 80-80 80z" />
<glyph unicode="&#xe640;" glyph-name="ico-77" d="M924.8 553.6h-240v240c0 22.4-16 41.6-41.6 41.6h-556.8c-22.4 0-41.6-16-41.6-41.6v-560c0-22.4 16-41.6 41.6-41.6h160c22.4 0 41.6 16 41.6 41.6s-16 41.6-41.6 41.6h-121.6v480h480v-480h-198.4v198.4h115.2c22.4 0 41.6 16 41.6 41.6s-16 41.6-41.6 41.6h-160c-22.4 0-41.6-16-41.6-41.6v-560c0-22.4 16-41.6 41.6-41.6h560c22.4 0 41.6 16 41.6 41.6v560c-3.2 19.2-16 38.4-38.4 38.4zM886.4-6.4h-480v198.4h240c22.4 0 41.6 16 41.6 41.6v240h198.4v-480z" />
<glyph unicode="&#xe641;" glyph-name="ico-78" d="M886.4 816h-761.6c-41.6 0-73.6-32-73.6-73.6v-464c0-41.6 32-73.6 73.6-73.6h364.8v-121.6c-28.8-6.4-54.4-32-57.6-64h-345.6v-32h345.6c9.6-32 38.4-54.4 70.4-54.4s60.8 22.4 70.4 54.4h345.6v32h-339.2c-3.2 32-28.8 54.4-57.6 64v121.6h364.8c41.6 0 73.6 32 73.6 73.6v464c0 41.6-32 73.6-73.6 73.6zM124.8 752h764.8c6.4 0 9.6-3.2 9.6-9.6v-198.4h-784v198.4c0 6.4 3.2 9.6 9.6 9.6zM886.4 272h-761.6c-6.4 0-9.6 3.2-9.6 9.6v198.4h780.8v-198.4c0-6.4-3.2-9.6-9.6-9.6zM768 636.8c0-21.208 17.192-38.4 38.4-38.4s38.4 17.192 38.4 38.4v0c0 21.208-17.192 38.4-38.4 38.4s-38.4-17.192-38.4-38.4v0zM768 387.2c0-21.208 17.192-38.4 38.4-38.4s38.4 17.192 38.4 38.4v0c0 21.208-17.192 38.4-38.4 38.4s-38.4-17.192-38.4-38.4v0z" />
<glyph unicode="&#xe642;" glyph-name="zoomIn" d="M630.272 456.192h-299.008c-16.384 0-29.696-14.336-29.696-31.744 0-17.92 13.312-32.256 29.696-32.256h299.008c16.384 0 29.696 14.336 29.696 31.744s-13.312 31.744-29.696 32.256zM512.512 274.432v299.008c0 16.384-14.336 29.696-31.744 29.696-17.92 0-32.256-13.312-32.256-29.696v-299.008c0-16.384 14.336-29.696 31.744-29.696s31.744 13.824 32.256 29.696zM929.28 15.36l-165.376 165.376 2.56 3.072c56.832 67.072 87.552 152.576 87.552 240.128 0 205.824-167.424 373.76-373.76 373.76-205.824 0-373.76-167.424-373.76-373.76 0-205.824 167.424-373.76 373.76-373.76 84.992 0 168.448 29.696 234.496 83.456l3.072 2.56 165.888-165.888c6.656-6.656 15.36-9.728 23.552-9.216h1.024c16.384 0 29.696 13.312 29.696 29.696v0.512c1.024 8.704-2.048 17.408-8.704 24.064zM480.768 113.664c-171.008 0-310.272 139.264-310.272 310.272s139.264 310.272 310.272 310.272 310.272-139.264 310.272-310.272-139.264-310.272-310.272-310.272z" />
<glyph unicode="&#xe643;" glyph-name="cipanio" horiz-adv-x="1099" d="M451.060 209.9h82.1c9.8 0 16.9 5.7 16.9 15.3 0 8 0 26.3 0 36.5 0 8.8-6.3 13.8-17.6 13.8h-82c-10.7 0-16.1-7.6-16.1-15.8 0-6.8 0-28.1 0-33.8-0.1-7.7 8.3-16 16.7-16zM612.36 209.9h116.6c10.5 0 17.3 5.8 17.3 14.2 0 8.2 0 28.2 0 36.5 0 8.7-6 14.9-17.6 14.9h-116.9c-10.4 0-17-6-17-14.8 0-5.6 0-24.7 0-32.1 0-10.2 6.1-18.7 17.6-18.7zM364.56 750.3l-184.7-339.7v-285c0-27.5 16.4-42.3 45.6-42.3h626.3c25.4 0 40.8 15.4 40.8 40.5v290.4l-185.3 336.1h-342.7zM671.66 694.4l155.5-278.2h-577.1l152.8 278.2h268.8zM832.56 139.7h-594.3v213.8h594.3v-213.8z" />
<glyph unicode="&#xe644;" glyph-name="yingyong1" d="M623.3 428.5l169.2 0.1c127.9 1.2 231.5 105.5 231.5 233.7 0 128.8-104.9 233.7-233.7 233.7s-233.8-104.9-233.8-233.7c0-0.7 0-1.5 0.1-2.2h-0.1v-164.7c0-36.9 30-66.9 66.8-66.9zM601 660c0.1 0.8 0 1.5 0 2.3 0 104.3 84.9 189.2 189.2 189.2s189.2-84.9 189.2-189.2c0-103.6-83.7-188-187-189.2v-0.1h-169.1c-12.3 0-22.3 10-22.3 22.3v164.7zM233.7 896c-128.8 0-233.7-104.9-233.7-233.7 0-128.1 103.7-232.5 231.5-233.7v-0.1h169.2c36.8 0 66.8 30 66.8 66.8v164.7h-0.1c0 0.7 0.1 1.5 0.1 2.2 0 128.9-104.9 233.8-233.8 233.8zM423 660.1v-164.8c0-12.3-10-22.3-22.3-22.3l-169.2 0.1c-103.3 1.2-187 85.6-187 189.2 0 104.3 84.9 189.2 189.2 189.2s189.3-84.9 189.3-189.2v-2.2zM792.5 339.4l-169.2 0.1c-36.8 0-66.8-30-66.8-66.8v-164.7h0.1c0-0.7-0.1-1.5-0.1-2.2 0-128.9 104.9-233.7 233.7-233.7s233.8 104.8 233.8 233.6c0 128.2-103.7 232.5-231.5 233.7zM790.3-83.5c-104.3 0-189.2 84.9-189.2 189.2 0 0.7 0 1.5 0.1 2.2h-0.2v164.8c0 12.3 10 22.3 22.3 22.3l169.2-0.1c103.3-1.2 187-85.6 187-189.2 0-104.3-84.9-189.2-189.2-189.2zM400.7 339.5l-169.2-0.1c-127.8-1.2-231.5-105.5-231.5-233.7 0-128.8 104.9-233.7 233.7-233.7s233.7 104.9 233.7 233.7c0 0.7 0 1.5-0.1 2.2h0.1v164.8c0.1 36.8-29.9 66.8-66.7 66.8zM423 108c-0.1-0.8 0-1.5 0-2.3 0-104.3-84.9-189.2-189.2-189.2s-189.3 84.9-189.3 189.2c0 103.6 83.7 188 187 189.2v0.1h169.2c12.3 0 22.3-10 22.3-22.3v-164.7z" />
<glyph unicode="&#xe645;" glyph-name="guanlizhongxin" d="M487.665 465.122c-51.155 0-92.777-41.623-92.777-92.777s41.623-92.777 92.777-92.777c51.14 0 92.762 41.623 92.762 92.777s-41.608 92.777-92.762 92.777zM487.665 309.685c-34.56 0-62.66 28.115-62.66 62.66s28.1 62.66 62.66 62.66c34.545 0 62.645-28.115 62.645-62.66s-28.1-62.66-62.645-62.66zM983.838 304.911v109.839c0 22.694-35.554 31.337-48.083 32.602l-49.8 4.713c-9.833 44.137-29.003 87.989-57.118 130.665l27.272 34.876c13.282 16.218 14.577 38.008 2.906 49.679l-69.496 69.12c-11.656 11.656-33.084 10.044-49.815-3.629l-36.563-29.862c-39.665 24.681-82.899 41.502-128.768 50.944l-5.24 42.135c-1.205 12.077-9.803 44.8-32.617 44.8h-97.882c-22.799 0-31.383-32.723-32.587-44.845l-5.436-39.484c-41.683-10.21-83.11-28.777-123.392-55.311l-41.758 32.994c-16.324 13.327-38.159 14.682-49.754 3.087l-69.15-69.481c-11.64-11.656-9.954-33.114 3.75-49.845l35.674-43.776c-21.631-34.751-38.383-75.163-47.989-118.27l-0.485-2.592-68.774-5.918c-20.435-2.048-33.702-15.767-33.702-32.617v-97.882c0-16.821 13.267-30.539 33.626-32.587l70.295-6.024c10.488-45.013 27.367-84.719 49.905-120.503l-0.949 1.614-37.376-45.719c-13.719-16.745-15.33-38.099-3.75-49.664l69.15-69.225c11.595-11.61 32.919-10.074 49.589 3.539l45.176 36.698c34.323-22.214 74.204-39.679 116.825-50.186l2.697-0.562 5.843-55.432c2.093-20.947 16.113-36.744 32.587-36.744h97.882c16.474 0 30.494 15.797 32.572 36.668l5.451 51.923c4.081 0 8.403-0.241 12.83-0.482 11.896-0.648 24.2-1.129 36.232 2.244 41.476-33.853 95.002-54.363 153.318-54.363 0.194 0 0.389 0 0.583 0.001h-0.030c135.108 0 245.022 109.914 245.022 245.022 0 47.104-13.448 92.446-38.671 131.84zM589.011 9.909c-9.984 0.542-20.269 1.114-30.584-0.738-6.499-1.192-11.47-6.475-12.177-13.036l-0.006-0.066-6.731-64.301c-0.632-6.264-3.403-9.683-2.982-9.939l-96.527-0.271c-0.949 0.542-3.72 3.945-4.367 10.285l-6.957 66.123c-0.691 6.462-5.439 11.643-11.618 12.978l-0.098 0.018c-48.915 10.535-92.113 29.538-130.115 55.572l1.241-0.803c-2.34 1.599-5.23 2.553-8.343 2.553-3.567 0-6.842-1.253-9.408-3.343l0.027 0.021-53.67-43.595c-4.563-3.735-8.614-4.578-10.662-4.638l-67.223 67.313c0.015 1.792 1.009 6.189 4.744 10.767l44.228 54.106c2.091 2.543 3.359 5.831 3.359 9.416 0 3.067-0.928 5.918-2.519 8.286l0.034-0.053c-25.555 38.415-43.354 81.589-52.902 128.331-1.317 6.319-6.508 11.112-12.929 11.815l-0.066 0.006-82.613 7.168c-6.189 0.617-8.418 2.967-8.493 2.982l-0.105 97.235c0.286 0.587 2.68 3.072 8.704 3.674l80.459 7.093c6.542 0.733 11.762 5.606 13.010 11.907l0.016 0.095c9.571 49.275 27.898 93.001 53.433 131.536l-0.833-1.337c1.521 2.294 2.426 5.11 2.426 8.138 0 3.567-1.256 6.84-3.351 9.402l0.021-0.027-42.285 52.104c-3.81 4.653-4.713 9.156-4.698 10.963l67.464 67.735c1.747 0.196 6.129-0.648 10.857-4.503l50.507-39.951c2.522-2.035 5.766-3.267 9.297-3.267 3.131 0 6.036 0.968 8.432 2.622l-0.050-0.033c43.324 29.952 87.883 49.664 132.457 59.046 6.37 1.34 11.113 6.174 11.746 12.634l6.475 50.899c0.738 7.364 4.081 17.83 6.551 17.83h90.714c2.364 0 5.813-10.029 6.596-17.679l6.249-52.104c0.638-6.727 5.661-12.114 12.152-13.298l0.091-0.014c52.197-9.338 98.632-28.574 139.267-55.793l-1.313 0.828c2.308-1.547 5.147-2.468 8.202-2.468 3.565 0 6.837 1.255 9.398 3.348l-0.027-0.021 44.966 36.442c4.653 3.795 9.728 4.578 10.903 4.638l67.81-67.132c0.331-1.099-0.015-5.948-4.337-11.204l-34.138-43.64c-1.969-2.503-3.158-5.701-3.158-9.176 0-3.162 0.984-6.094 2.664-8.507l-0.032 0.049c31.533-45.613 51.938-92.491 60.717-139.369 1.235-6.52 6.581-11.445 13.176-12.077l60.597-5.752c7.891-0.798 21.022-4.262 21.022-6.837v-79.315c-8.443 9.943-17.591 18.79-27.535 26.68l-0.399 0.306c-40.27 32.348-91.992 51.935-148.288 51.983h-0.011c-1.777 0-3.494-0.226-5.256-0.271-19.023 141.434-138.947 249.344-284.075 249.344-0.173 0-0.345 0-0.518 0h0.027c-158.434 0-287.307-128.888-287.307-287.307s128.888-287.307 287.307-287.307c22.408 0 44.619 2.726 66.244 7.831 9.222-25.335 21.596-47.25 36.958-66.697l-0.38 0.499c4.698-5.963 9.758-11.64 14.968-17.122-5.105-0.166-10.677 0.075-16.429 0.392zM757.128 409.54c-121.434-10.376-217.118-112.369-217.118-236.454 0-22.633 3.283-44.664 9.367-65.822-20.149-4.668-40.824-7.168-61.696-7.168-150.121 0-272.248 122.127-272.248 272.248s122.127 272.248 272.248 272.248c0.137 0 0.299 0 0.461 0 137.079 0 250.425-101.614 268.823-233.627l0.163-1.427zM777.487-41.818c-56.501 0-97.175 16.248-138.33 50.432-3.93 3.268-10.812 5.24-16.941 5.12-0.090 0.090-0.12 0.226-0.211 0.316-24.165 23.621-42.967 52.621-54.481 85.071l-0.483 1.562c0.072 0.391 0.114 0.842 0.114 1.302 0 0.661-0.086 1.302-0.246 1.912l0.012-0.052c-0.347 1.189-0.95 2.211-1.749 3.044l0.002-0.003c-6.404 19.789-10.104 42.559-10.12 66.191v0.008c0 122.639 99.78 222.419 222.434 222.419 51.080 0 99.102-16.836 138.888-48.67 16.685-13.372 28.431-26.052 35.87-38.792 0.090-0.166 0.286-0.226 0.392-0.376-0.426-1.316-0.672-2.831-0.672-4.403 0-3.089 0.949-5.957 2.572-8.327l-0.033 0.050c23.721-33.937 37.903-76.064 37.903-121.504 0-0.134 0-0.269 0-0.403v0.021c-0.015-118.513-96.422-214.92-214.92-214.92zM776.252 354.906c-95.473 0-173.146-77.673-173.146-173.146s77.673-173.146 173.146-173.146 173.131 77.673 173.131 173.146-77.658 173.146-173.131 173.146zM776.252 23.672c-87.176 0-158.088 70.912-158.088 158.088s70.912 158.088 158.088 158.088c87.16 0 158.072-70.912 158.072-158.088s-70.912-158.088-158.072-158.088zM776.252 263.108c-44.86 0-81.348-36.488-81.348-81.348s36.503-81.348 81.348-81.348 81.333 36.488 81.333 81.348-36.472 81.348-81.333 81.348zM776.252 130.53c-28.25 0-51.23 22.98-51.23 51.23s22.98 51.23 51.23 51.23 51.215-22.98 51.215-51.23-22.965-51.23-51.215-51.23z" />
<glyph unicode="&#xe646;" glyph-name="cunchuqia" d="M256 736h-48c-35.2 0-64-28.8-64-64v-576c0-35.2 28.8-64 64-64h608c35.2 0 64 28.8 64 64v576c0 35.2-28.8 64-64 64h-48v-288c0-35.2-28.8-64-64-64h-384c-35.2 0-64 28.8-64 64v288zM208 800h608c70.4 0 128-57.6 128-128v-576c0-70.4-57.6-128-128-128h-608c-70.4 0-128 57.6-128 128v576c0 70.4 57.6 128 128 128zM320 448h384v288h-384v-288zM608 672c17.6 0 32-14.4 32-32v-96c0-17.6-14.4-32-32-32s-32 14.4-32 32v96c0 17.6 14.4 32 32 32z" />
</font>
</defs>
</svg>
