<svg t="1606042626239" class="icon" viewBox="0 0 1024 1024" version="1.1" xmlns="http://www.w3.org/2000/svg" p-id="3965" width="200" height="200"><path d="M818.6 273.6c-49-64.8-118.6-113.4-196-136.6-13.4-4-27.5 3.6-31.5 17s3.6 27.5 17 31.5c139.8 41.9 237.4 173.3 237.4 319.4 0 183.8-149.6 333.4-333.4 333.4S178.6 688.7 178.6 504.9c0-147.3 98.6-278.9 239.9-320.1 13.4-3.9 21.1-18 17.2-31.4-3.9-13.4-17.9-21.1-31.4-17.2C241.6 183.6 128 335.2 128 504.9c0 211.7 172.3 384 384 384s384-172.3 384-384c0-84.3-26.8-164.3-77.4-231.3z" p-id="3966" fill="#333333"></path><path d="M512 577.4c14 0 25.3-11.3 25.3-25.3V160.5c0-14-11.3-25.3-25.3-25.3s-25.3 11.3-25.3 25.3v391.6c0 14 11.3 25.3 25.3 25.3z" p-id="3967" fill="#333333"></path></svg>