<?xml version="1.0" encoding="UTF-8"?>
<svg width="20px" height="20px" viewBox="0 0 20 20" version="1.1" xmlns="http://www.w3.org/2000/svg" xmlns:xlink="http://www.w3.org/1999/xlink">
    <title>形状结合 2</title>
    <g id="页面-1" stroke="none" stroke-width="1" fill="none" fill-rule="evenodd">
        <g id="画板备份-2" transform="translate(-1545.000000, -491.000000)" fill="#3078FF">
            <g id="编组-3" transform="translate(1540.000000, 310.000000)">
                <g id="编组备份" transform="translate(0.000000, 171.000000)">
                    <g id="形状结合-2" transform="translate(5.000000, 10.000000)">
                        <path d="M10.3076923,5.32907052e-15 C13.648763,5.32907052e-15 16.367958,2.66256664 16.4591743,5.98159702 L16.4615385,6.15384615 L16.4615385,7.07692308 L16.7692308,7.07692308 C17.7888334,7.07692308 18.6153846,7.90347431 18.6153846,8.92307692 L18.6153846,18.1538462 C18.6153846,19.1734488 17.7888334,20 16.7692308,20 L3.84615385,20 C2.82655123,20 2,19.1734488 2,18.1538462 L2,8.92307692 C2,7.90347431 2.82655123,7.07692308 3.84615385,7.07692308 L4.15384615,7.07692308 L4.15384615,6.15384615 C4.15384615,2.81277544 6.81641279,0.0935804813 10.1354432,0.0023641831 L10.3076923,5.32907052e-15 Z M10.3076923,9.96923077 C9.02299301,9.96923077 7.98153846,11.0106853 7.98153846,12.2953846 C7.98153846,13.2233532 8.52491882,14.0244086 9.31085553,14.3977266 L9.31085553,14.3977266 L9.31076923,16.9476923 C9.31076923,17.4982777 9.7571069,17.9446154 10.3076923,17.9446154 C10.8582777,17.9446154 11.3046154,17.4982777 11.3046154,16.9476923 L11.3046154,16.9476923 L11.3055217,14.3972549 C12.0909233,14.023734 12.6338462,13.2229625 12.6338462,12.2953846 C12.6338462,11.0106853 11.5923916,9.96923077 10.3076923,9.96923077 Z M10.3076923,1.84615385 C7.97818356,1.84615385 6.08055466,3.69525131 6.00249786,6.005754 L6,6.15384615 L6,7.07692308 L14.6153846,7.07692308 L14.6153846,6.15384615 C14.6153846,3.8243374 12.7662871,1.9267085 10.4557845,1.8486517 L10.3076923,1.84615385 Z" id="形状结合"></path>
                    </g>
                </g>
            </g>
        </g>
    </g>
</svg>