<?xml version="1.0" encoding="UTF-8"?>
<svg width="20px" height="20px" viewBox="0 0 20 20" version="1.1" xmlns="http://www.w3.org/2000/svg" xmlns:xlink="http://www.w3.org/1999/xlink">
    <title>路径 2</title>
    <g id="页面-1" stroke="none" stroke-width="1" fill="none" fill-rule="evenodd">
        <g id="画板备份-2" transform="translate(-1546.000000, -411.000000)" fill="#3078FF">
            <g id="编组-3" transform="translate(1540.000000, 310.000000)">
                <g id="编组" transform="translate(0.000000, 91.000000)">
                    <g id="路径-2" transform="translate(6.000000, 10.000000)">
                        <path d="M11.4981982,0.984194692 C11.7584871,0.892881164 12.1002624,0.8472244 12.523524,0.8472244 C13.1584164,0.8472244 14.6170781,2.51896035 14.6170781,3.97459137 C14.6170781,4.62405494 14.5468084,5.10629376 14.308246,5.43647311 C14.3448726,5.43365673 14.3817753,5.43428379 14.4188559,5.43767236 C15.0598775,5.49625137 15.5113329,6.35791881 15.4272097,7.36226046 C15.3430865,8.36660211 14.7552405,9.13329422 14.1142189,9.07471522 C14.0468856,9.06856204 13.9816439,9.05354796 13.9188947,9.03043837 C13.4406536,10.5944645 11.9812719,11.9678864 11.3465323,12.3899235 C11.0112921,12.6128241 11.1276862,13.0873935 11.6957146,13.8136317 C11.9973525,14.1992725 12.3887864,14.5052339 12.8358591,14.7048091 L16.8492709,16.4964137 L16.8492709,16.4964137 C17.7938386,16.8752533 18.2477764,17.9366042 17.8631693,18.8670073 C17.5799779,19.5520755 16.9038206,20 16.1528781,20 L3.84663447,20 C2.82676641,20 2,19.1856317 2,18.1810575 C2,17.4613255 2.43084522,16.80928 3.09896479,16.5178733 L6.96204774,14.6986176 C7.37506338,14.5041053 7.73824406,14.2179042 8.02392188,13.8618071 C8.61779562,13.1215443 8.75373019,12.6281984 8.43172556,12.3817696 C7.83289392,11.9234862 6.3518021,10.5868223 5.87570764,9.02972267 C5.81328701,9.05351346 5.74797274,9.06855497 5.68056209,9.07471522 C5.03954049,9.13329422 4.4516945,8.36660211 4.36757132,7.36226046 C4.28344814,6.35791881 4.7349035,5.49625137 5.37592509,5.43767236 C5.45587613,5.43036613 5.53499996,5.43589796 5.61242241,5.45312774 L5.61378089,5.44380799 L5.52824359,5.43452706 C5.37818124,5.43452706 5.53526503,4.60404688 5.99949497,2.94308651 C6.52226214,1.58754366 7.53261622,0.645273084 9.03055721,0.116274773 C10.4736123,-0.393340554 11.4072483,0.934292873 11.4981982,0.984194692 Z" id="路径"></path>
                    </g>
                </g>
            </g>
        </g>
    </g>
</svg>