<svg xmlns="http://www.w3.org/2000/svg" viewBox="0 0 86.6 100"><defs><style>.cls-1{fill:#4fa5ff;}</style></defs><title>资源 55</title><g id="图层_2" data-name="图层 2"><g id="图层_2-2" data-name="图层 2"><path class="cls-1" d="M43.3,100,0,75V25L43.3,0,86.6,25V75Zm-39-27.49L43.3,95l39-22.5v-45L43.3,5l-39,22.5Z"/><path class="cls-1" d="M66.79,38.73a7.6,7.6,0,0,1-.46,1.2h.86V50a8.46,8.46,0,0,1-.86,3.69h.86v1.42L78.72,48.4V31.62Z"/><path class="cls-1" d="M67.19,63.75a9.25,9.25,0,0,1-2.71,6.34v8.68l14.24-8.28V53.71L67.19,60.59Z"/><path class="cls-1" d="M45.73,89.41,60,81.13V73.44A34.41,34.41,0,0,1,45.73,77Z"/><path class="cls-1" d="M26.63,80.92l14.24,8.49V77a34.45,34.45,0,0,1-14.24-3.56Z"/><path class="cls-1" d="M19.42,53.68h.85A8.38,8.38,0,0,1,19.42,50V39.93h.85a8.26,8.26,0,0,1-.52-1.41L7.89,31.62V48.19l11.53,6.88Z"/><path class="cls-1" d="M19.42,60.12,7.89,53.41V70l14.23,8.5V70.09a9.24,9.24,0,0,1-2.7-6.34Z"/><path class="cls-1" d="M75.87,29,61.34,20.89l-6.48,3.6c6.35,1.87,10.79,5.3,12,9.49Z"/><path class="cls-1" d="M25.55,20.89,11,29l8.77,4.87c1.26-4.17,5.76-7.56,12.14-9.4Z"/><path class="cls-1" d="M43.3,22.94a43.9,43.9,0,0,1,6.09.42l8.44-4.69L43.3,10.59,28.78,18.67l8.43,4.69A44.12,44.12,0,0,1,43.3,22.94Z"/><path class="cls-1" d="M60,45.86a27.74,27.74,0,0,1-12,3.88A43.56,43.56,0,0,1,43.3,50c-1.25,0-2.46-.06-3.65-.17-5.33-.46-9.94-1.92-13-4-2.48-1.67-4-3.71-4-5.93V50c0,2.22,1.49,4.26,4,5.92C29.93,58.13,35,59.66,40.87,60c.8,0,1.61.08,2.43.08s1.63,0,2.44-.08c5.84-.33,10.93-1.86,14.23-4.07,2.5-1.66,4-3.7,4-5.92V39.93C63.94,42.15,62.47,44.19,60,45.86ZM57.6,53.71,53.36,55.3V52.12l4.24-1.6Z"/><path class="cls-1" d="M56.16,61.56a35.15,35.15,0,0,1-10.42,2.12c-.81,0-1.61.07-2.44.07s-1.63,0-2.43-.07a36.4,36.4,0,0,1-8.63-1.51c-5.75-1.78-9.58-4.91-9.58-8.48V63.75c0,2.21,1.49,4.27,4,5.93,3.3,2.2,8.39,3.73,14.24,4.07.8,0,1.61.08,2.43.08s1.63,0,2.44-.08c5.84-.34,10.93-1.87,14.23-4.07,2.5-1.66,4-3.72,4-5.93V53.69C63.94,56.87,60.9,59.71,56.16,61.56Zm1.44,5.38-4.24,1.58V65.35l4.24-1.59Z"/><path class="cls-1" d="M50.63,26.85a39.67,39.67,0,0,0-6.36-.65l-1,0-1,0a40.69,40.69,0,0,0-6.13.6c-7.43,1.33-12.84,4.68-13.47,8.68a6.48,6.48,0,0,0-.07.77c0,5.14,7.9,9.37,18.09,10,.84,0,1.69.07,2.55.07s1.72,0,2.55-.07c10.2-.62,18.09-4.85,18.09-10a4.2,4.2,0,0,0-.06-.62C63.38,31.6,58,28.22,50.63,26.85Z"/><polygon class="cls-1" points="22.12 53.68 22.12 53.68 22.12 53.68 22.12 53.68"/><polygon class="cls-1" points="22.12 39.93 22.12 39.93 22.12 39.93 22.12 39.93"/><path class="cls-1" d="M22.1,39.89s0,0,0,0v0Z"/></g></g></svg>